<svg xmlns="http://www.w3.org/2000/svg" version="1.1" xmlns:xlink="http://www.w3.org/1999/xlink" width="2000" height="182" viewBox="0 0 2000 182"><svg xml:space="preserve" width="2000" height="182" data-version="2" data-id="lg_I7g5yOKQktm9BvQVhe" viewBox="0 0 427 182" x="0" y="0"><rect width="100%" height="100%" fill="transparent"></rect><path d="M217.59 36.89q.31 1.24.31 3.08 0 1.77-.31 3.08.31 1.24.31 3.08 0 1.77-.31 3.08.31 1.24.31 3.08 0 1.77-.31 3.08.31 1.24.31 3.08 0 1.77-.31 3.08.31 1.24.31 3.08 0 1.77-.31 3.08.31 1.24.31 3.08 0 1.77-.31 3.08h-6.16q-.31-1.31-.31-3.08 0-1.84.31-3.08-.31-1.31-.31-3.08 0-1.84.31-3.08-.31-1.31-.31-3.08 0-1.84.31-3.08-.31-1.31-.31-3.08 0-1.84.31-3.08-.31-1.31-.31-3.08 0-1.84.31-3.08h-2.31q.31 1.24.31 3.08 0 1.77-.31 3.08.31 1.24.31 3.08 0 1.77-.31 3.08h-1.54q.31 1.24.31 3.08 0 1.77-.31 3.08.31 1.24.31 3.08 0 1.77-.31 3.08h-4.62q-.31-1.31-.31-3.08 0-1.84.31-3.08-.31-1.31-.31-3.08 0-1.84.31-3.08h-1.54q-.31-1.31-.31-3.08 0-1.84.31-3.08-.31-1.31-.31-3.08 0-1.84.31-3.08h-2.31q.31 1.24.31 3.08 0 1.77-.31 3.08.31 1.24.31 3.08 0 1.77-.31 3.08.31 1.24.31 3.08 0 1.77-.31 3.08.31 1.24.31 3.08 0 1.77-.31 3.08.31 1.24.31 3.08 0 1.77-.31 3.08h-6.16q-.31-1.31-.31-3.08 0-1.84.31-3.08-.31-1.31-.31-3.08 0-1.84.31-3.08-.31-1.31-.31-3.08 0-1.84.31-3.08-.31-1.31-.31-3.08 0-1.84.31-3.08-.31-1.31-.31-3.08 0-1.84.31-3.08-.31-1.31-.31-3.08 0-1.84.31-3.08-.31-1.31-.31-3.08 0-1.84.31-3.08h7.7q.31 1.24.31 3.08 0 1.77-.31 3.08h2.31q.31 1.24.31 3.08 0 1.77-.31 3.08h1.15q.31 1.24.31 3.08 0 1.77-.31 3.08h2.31q-.3-1.31-.3-3.08 0-1.84.3-3.08h1.16q-.31-1.31-.31-3.08 0-1.84.31-3.08h2.31q-.31-1.31-.31-3.08 0-1.84.31-3.08h7.7q.31 1.24.31 3.08 0 1.77-.31 3.08"></path><rect width="25.26" height="43.12" x="-12.63" y="-21.56" fill="none" rx="0" ry="0" transform="translate(205.77 52.79)"></rect><path d="M248.39 49.21q.31 1.24.31 3.08 0 1.77-.31 3.08.31 1.24.31 3.08 0 1.77-.31 3.08h-3.08q.31 1.24.31 3.08 0 1.77-.31 3.08h-3.08q.31 1.24.31 3.08 0 1.77-.31 3.08h-18.48q-.31-1.31-.31-3.08 0-1.84.31-3.08-.31-1.31-.31-3.08 0-1.84.31-3.08-.31-1.31-.31-3.08 0-1.84.31-3.08-.31-1.31-.31-3.08 0-1.84.31-3.08-.31-1.31-.31-3.08 0-1.84.31-3.08-.31-1.31-.31-3.08 0-1.84.31-3.08-.31-1.31-.31-3.08 0-1.84.31-3.08h18.48q.31 1.24.31 3.08 0 1.77-.31 3.08h3.08q.31 1.24.31 3.08 0 1.77-.31 3.08h3.08q.31 1.24.31 3.08 0 1.77-.31 3.08m-6.16 12.32q-.31-1.31-.31-3.08 0-1.84.31-3.08-.31-1.31-.31-3.08 0-1.84.31-3.08-.31-1.31-.31-3.08 0-1.84.31-3.08h-3.08q-.31-1.31-.31-3.08 0-1.84.31-3.08h-9.24q.31 1.24.31 3.08 0 1.77-.31 3.08.31 1.24.31 3.08 0 1.77-.31 3.08.31 1.24.31 3.08 0 1.77-.31 3.08.31 1.24.31 3.08 0 1.77-.31 3.08.31 1.24.31 3.08 0 1.77-.31 3.08h9.24q-.31-1.31-.31-3.08 0-1.84.31-3.08z"></path><rect width="25.26" height="43.12" x="-12.63" y="-21.56" fill="none" rx="0" ry="0" transform="translate(236.57 52.79)"></rect><path d="M274.57 67.69q.31 1.24.31 3.08 0 1.77-.31 3.08h-15.4q-.31-1.31-.31-3.08 0-1.84.31-3.08h4.62q-.31-1.31-.31-3.08 0-1.84.31-3.08-.31-1.31-.31-3.08 0-1.84.31-3.08-.31-1.31-.31-3.08 0-1.84.31-3.08-.31-1.31-.31-3.08 0-1.84.31-3.08-.31-1.31-.31-3.08 0-1.84.31-3.08h-4.62q-.31-1.31-.31-3.08 0-1.84.31-3.08h15.4q.31 1.24.31 3.08 0 1.77-.31 3.08h-4.62q.31 1.24.31 3.08 0 1.77-.31 3.08.31 1.24.31 3.08 0 1.77-.31 3.08.31 1.24.31 3.08 0 1.77-.31 3.08.31 1.24.31 3.08 0 1.77-.31 3.08.31 1.24.31 3.08 0 1.77-.31 3.08Z"></path><rect width="16.02" height="43.12" x="-8.01" y="-21.56" fill="none" rx="0" ry="0" transform="translate(267.37 52.79)"></rect><path d="M301.83 64.61q0 1.77-.31 3.08.31 1.24.31 3.08 0 1.77-.31 3.08h-7.7q-.31-1.31-.31-3.08 0-1.84.31-3.08-.31-1.31-.31-3.08 0-1.84.31-3.08h7.7q.31 1.24.31 3.08"></path><rect width="8.32" height="12.32" x="-4.16" y="-6.16" fill="none" rx="0" ry="0" transform="translate(298.17 68.19)"></rect><path d="M340.79 49.21q.31 1.24.31 3.08 0 1.77-.31 3.08.31 1.24.31 3.08 0 1.77-.31 3.08h-3.08q.31 1.24.31 3.08 0 1.77-.31 3.08h-3.08q.31 1.24.31 3.08 0 1.77-.31 3.08h-18.48q-.31-1.31-.31-3.08 0-1.84.31-3.08-.31-1.31-.31-3.08 0-1.84.31-3.08-.31-1.31-.31-3.08 0-1.84.31-3.08-.31-1.31-.31-3.08 0-1.84.31-3.08-.31-1.31-.31-3.08 0-1.84.31-3.08-.31-1.31-.31-3.08 0-1.84.31-3.08-.31-1.31-.31-3.08 0-1.84.31-3.08h18.48q.31 1.24.31 3.08 0 1.77-.31 3.08h3.08q.31 1.24.31 3.08 0 1.77-.31 3.08h3.08q.31 1.24.31 3.08 0 1.77-.31 3.08m-6.16 12.32q-.31-1.31-.31-3.08 0-1.84.31-3.08-.31-1.31-.31-3.08 0-1.84.31-3.08-.31-1.31-.31-3.08 0-1.84.31-3.08h-3.08q-.31-1.31-.31-3.08 0-1.84.31-3.08h-9.24q.31 1.24.31 3.08 0 1.77-.31 3.08.31 1.24.31 3.08 0 1.77-.31 3.08.31 1.24.31 3.08 0 1.77-.31 3.08.31 1.24.31 3.08 0 1.77-.31 3.08.31 1.24.31 3.08 0 1.77-.31 3.08h9.24q-.31-1.31-.31-3.08 0-1.84.31-3.08z"></path><rect width="25.26" height="43.12" x="-12.63" y="-21.56" fill="none" rx="0" ry="0" transform="translate(328.97 52.79)"></rect><path d="M356.19 55.37q.31 1.24.31 3.08 0 1.77-.31 3.08.31 1.24.31 3.08 0 1.77-.31 3.08h12.32q.31 1.24.31 3.08 0 1.77-.31 3.08h-18.48q-.31-1.31-.31-3.08 0-1.84.31-3.08-.31-1.31-.31-3.08 0-1.84.31-3.08-.31-1.31-.31-3.08 0-1.84.31-3.08-.31-1.31-.31-3.08 0-1.84.31-3.08-.31-1.31-.31-3.08 0-1.84.31-3.08-.31-1.31-.31-3.08 0-1.84.31-3.08-.31-1.31-.31-3.08 0-1.84.31-3.08h18.48q.31 1.24.31 3.08 0 1.77-.31 3.08h-12.32q.31 1.24.31 3.08 0 1.77-.31 3.08.31 1.24.31 3.08 0 1.77-.31 3.08h12.32q.31 1.24.31 3.08 0 1.77-.31 3.08Z"></path><rect width="19.1" height="43.12" x="-9.55" y="-21.56" fill="none" rx="0" ry="0" transform="translate(359.77 52.79)"></rect><path d="M402.39 36.89q.31 1.24.31 3.08 0 1.77-.31 3.08.31 1.24.31 3.08 0 1.77-.31 3.08h-2.31q.31 1.24.31 3.08 0 1.77-.31 3.08h-2.31q.31 1.24.31 3.08 0 1.77-.31 3.08h-1.54q.31 1.24.31 3.08 0 1.77-.31 3.08h-3.08q.31 1.24.31 3.08 0 1.77-.31 3.08h-6.16q-.31-1.31-.31-3.08 0-1.84.31-3.08h-3.08q-.31-1.31-.31-3.08 0-1.84.31-3.08h-1.54q-.31-1.31-.31-3.08 0-1.84.31-3.08h-2.31q-.31-1.31-.31-3.08 0-1.84.31-3.08h-2.31q-.31-1.31-.31-3.08 0-1.84.31-3.08-.31-1.31-.31-3.08 0-1.84.31-3.08-.31-1.31-.31-3.08 0-1.84.31-3.08h6.16q.31 1.24.31 3.08 0 1.77-.31 3.08.31 1.24.31 3.08 0 1.77-.31 3.08.31 1.24.31 3.08 0 1.77-.31 3.08h2.31q.31 1.24.31 3.08 0 1.77-.31 3.08h2.31q.31 1.24.31 3.08 0 1.77-.31 3.08h3.08q-.31-1.31-.31-3.08 0-1.84.31-3.08h2.31q-.31-1.31-.31-3.08 0-1.84.31-3.08h2.31q-.31-1.31-.31-3.08 0-1.84.31-3.08-.31-1.31-.31-3.08 0-1.84.31-3.08-.31-1.31-.31-3.08 0-1.84.31-3.08h6.16q.31 1.24.31 3.08 0 1.77-.31 3.08"></path><rect width="25.26" height="43.12" x="-12.63" y="-21.56" fill="none" rx="0" ry="0" transform="translate(390.57 52.79)"></rect><path stroke="#000" stroke-width="3.93" d="M143.88 1.831V180.17"></path><path stroke="#000" stroke-width="3" d="m178.195 97.618 243.206-2.448"></path><path d="M13.438 103.771V87.742H6.716v3.442h2.63v12.587zm20.239-12.587h2.619v12.587h4.09V87.742h-6.71zm-12.49 19.092h2.619v12.576h4.091v-16.029h-6.71zm0 18.659h2.619v12.587h4.091v-16.029h-6.71zm12.49-18.66h2.619v12.577h4.09v-16.029h-6.71zm-6.62-22.318a6.364 6.364 0 0 0-2.448-.52 6.68 6.68 0 0 0-2.425.479c-2.426.973-3.617 3.029-3.617 5.608v4.46c0 2.558 1.213 4.594 3.595 5.59.78.326 1.602.497 2.447.497.91 0 1.82-.197 2.642-.583 2.253-1.04 3.27-3.099 3.27-5.504v-4.46c0-2.512-1.125-4.548-3.464-5.567m-.629 10.139c0 1.254-.41 2.379-1.884 2.379-1.408 0-1.884-1.148-1.884-2.38v-4.678c0-1.214.476-2.383 1.884-2.383 1.473 0 1.884 1.125 1.884 2.383zm74.503 12.18h2.63v12.576h4.09v-16.029h-6.72zm0 18.659h2.63v12.587h4.09v-16.029h-6.72zm5.874-40.978a6.362 6.362 0 0 0-2.447-.52 6.69 6.69 0 0 0-2.426.479c-2.426.973-3.616 3.029-3.616 5.608v4.46c0 2.558 1.213 4.594 3.595 5.59.78.326 1.6.497 2.447.497a6.24 6.24 0 0 0 2.642-.583c2.254-1.04 3.27-3.099 3.27-5.504v-4.46c0-2.512-1.127-4.548-3.465-5.567m-.628 10.139c0 1.254-.412 2.379-1.885 2.379-1.408 0-1.882-1.148-1.882-2.38v-4.678c0-1.214.474-2.383 1.882-2.383 1.473 0 1.885 1.125 1.885 2.383zm-23.202 24.756v-16.029h-6.71v3.453h2.62v12.576zm5.78-12.576h2.619v12.576h4.091v-16.029h-6.71zm-6.622 15.435a6.402 6.402 0 0 0-2.447-.519 6.68 6.68 0 0 0-2.425.476c-2.426.974-3.62 3.032-3.62 5.608v4.463c0 2.554 1.215 4.593 3.597 5.59a6.353 6.353 0 0 0 2.448.497c.91 0 1.818-.197 2.64-.587 2.253-1.039 3.27-3.095 3.27-5.5v-4.463c.003-2.511-1.123-4.544-3.463-5.565m-.629 10.136c0 1.258-.41 2.383-1.884 2.383-1.407 0-1.882-1.148-1.882-2.383v-4.675c0-1.214.475-2.386 1.882-2.386 1.474 0 1.884 1.13 1.884 2.386zm-68.913-28.803a6.348 6.348 0 0 0-2.45-.518c-.822 0-1.644.17-2.422.475-2.427.974-3.618 3.031-3.618 5.612v4.46c0 2.554 1.213 4.59 3.595 5.589a6.38 6.38 0 0 0 2.446.494c.911 0 1.82-.193 2.642-.583 2.253-1.04 3.27-3.095 3.27-5.5v-4.46c.002-2.516-1.125-4.55-3.463-5.569m-.63 10.136c0 1.258-.411 2.382-1.884 2.382-1.407 0-1.883-1.15-1.883-2.382v-4.68c0-1.211.476-2.379 1.883-2.379 1.473 0 1.884 1.125 1.884 2.38zm41.965-13.409V87.742h-6.71v3.442h2.62v12.587zm7.75 6.505h2.619v12.576h4.102v-16.029h-6.721zm0 18.659h2.619v12.587h4.102v-16.029h-6.721zm-8.595-21.89a6.352 6.352 0 0 0-2.45-.52c-.822 0-1.644.172-2.424.476-2.426.974-3.617 3.031-3.617 5.612v4.46c0 2.554 1.214 4.59 3.596 5.589a6.38 6.38 0 0 0 2.446.494c.911 0 1.82-.193 2.642-.583 2.253-1.04 3.27-3.095 3.27-5.5v-4.46c.002-2.516-1.125-4.55-3.463-5.569m-.629 10.135c0 1.258-.411 2.382-1.884 2.382-1.407 0-1.883-1.15-1.883-2.382V112.5c0-1.211.476-2.379 1.883-2.379 1.473 0 1.884 1.125 1.884 2.38z"></path><path d="M92.165 84.785h1.233l12.592.023.46-.462c3.125-3.251 5.053-7.661 5.053-12.514 0-8.913-6.487-16.337-14.982-17.81-.018-.003-.035-.006-.055-.007-1.502-8.468-8.906-14.923-17.797-14.923-8.376 0-15.436 5.727-17.48 13.471a17.991 17.991 0 0 0-11.32-3.998c-9.004 0-16.49 6.618-17.857 15.245a17.962 17.962 0 0 0-9.83-2.92c-9.97 0-18.081 8.112-18.081 18.08 0 1.964.318 3.856.9 5.625l.001.02h.007l6.26.01 21.803.044 6.26.012 8.575.018.986.001c.322.017.649.026.976.026V84.7l1.96.004c.015-.003.031-.004.047-.006l6.614.017a18.071 18.071 0 0 0 2.412 4.302c-1.228 1.105-1.844 2.67-1.844 4.507v4.46c0 2.558 1.213 4.594 3.595 5.59.78.326 1.6.497 2.447.497.91 0 1.82-.197 2.642-.583 2.252-1.04 3.27-3.099 3.27-5.504v-2.26c.855.211 1.733.358 2.63.442v1.818c0 2.558 1.215 4.594 3.597 5.59a6.294 6.294 0 0 0 2.448.497 6.22 6.22 0 0 0 2.64-.583c2.253-1.04 3.27-3.099 3.27-5.504v-4.933a18.329 18.329 0 0 0 2.271-1.867h3.5v12.585h4.095V87.742h-4.807a18.021 18.021 0 0 0 1.51-2.957m-55.5-5.757-2.188-.003-24.59-.05v-.007c0-6.78 5.516-12.297 12.296-12.297 4.646 0 8.697 2.593 10.787 6.403a1.542 1.542 0 0 1-.028-.084 18.103 18.103 0 0 0 3.774 6.039zM66.92 98.096c0 1.254-.412 2.379-1.884 2.379-1.408 0-1.884-1.148-1.884-2.38v-4.678c0-.58.112-1.146.38-1.583a18.14 18.14 0 0 0 3.39 2.322zm14.585 0c0 1.254-.41 2.379-1.884 2.379-1.407 0-1.882-1.148-1.882-2.38v-2.01a17.88 17.88 0 0 0 3.766-.926zm-6.161-7.632c-6.478 0-11.793-5.029-12.26-11.386v-.004a.36.36 0 0 1-.007-.066l-5.795-.012.006.07-8.053-.019c-6.487-.337-11.661-5.84-11.661-12.407 0-6.774 5.516-12.289 12.298-12.289 6.78 0 12.296 5.514 12.296 12.295h5.785c0-.337-.013-.672-.03-1.003-.005-.095-.017-.193-.022-.286a15.959 15.959 0 0 0-.064-.722l-.033-.264a18.042 18.042 0 0 0-.114-.78l-.022-.134a18.408 18.408 0 0 0-.684-2.637l-.605-3.65c0-6.78 5.515-12.296 12.295-12.296 5.717 0 10.53 3.92 11.905 9.214a.653.653 0 0 1 .055-.007 12.206 12.206 0 0 1 .04 5.762 12.433 12.433 0 0 1 2.752-.312c1.079 0 2.128.14 3.125.405 5.271 1.386 9.17 6.192 9.17 11.891a12.23 12.23 0 0 1-2.429 7.327l-15.706-.02c.004.013.013.025.016.037a11.655 11.655 0 0 1-.906 3.72c-1.855 4.44-6.246 7.573-11.352 7.573M185.01 133.2q.66 0 1.29-.13.63-.14 1.24-.33v2.99q-.64.29-1.6.48-.95.19-2.09.19-1.31 0-2.36-.43-1.05-.43-1.65-1.49-.6-1.06-.6-2.96v-7.1h-1.93v-1.7l2.22-1.35 1.16-3.11h2.57v3.14h4.13v3.02h-4.13v7.1q0 .85.48 1.26.48.42 1.27.42"></path><rect width="10.23" height="18.14" x="-5.12" y="-9.07" fill="none" rx="0" ry="0" transform="translate(182.93 127.83)"></rect><path d="M194.55 115.62v4.18q0 1.1-.08 2.09-.07.98-.11 1.39h.21q.48-.76 1.13-1.24.65-.47 1.44-.69.79-.23 1.7-.23 1.6 0 2.78.56 1.19.56 1.85 1.75.66 1.2.66 3.1v9.61h-4.02v-8.61q0-1.58-.58-2.39-.58-.8-1.79-.8-1.22 0-1.92.56-.69.56-.98 1.65-.29 1.08-.29 2.65v6.94h-4.03v-20.52Z"></path><rect width="13.61" height="20.52" x="-6.8" y="-10.26" fill="none" rx="0" ry="0" transform="translate(197.82 126.38)"></rect><path d="M221.66 128.74q0 1.85-.49 3.27t-1.44 2.41q-.94.98-2.27 1.48-1.32.5-2.98.5-1.56 0-2.86-.5-1.29-.5-2.25-1.48-.96-.99-1.48-2.41-.52-1.42-.52-3.27 0-2.45.87-4.15.87-1.7 2.48-2.59 1.61-.88 3.84-.88 2.07 0 3.67.88 1.6.89 2.52 2.59.91 1.7.91 4.15m-10.19 0q0 1.45.32 2.44t.99 1.49q.67.5 1.75.5 1.07 0 1.74-.5.66-.5.97-1.49.31-.99.31-2.44 0-1.46-.31-2.43-.31-.97-.98-1.46-.67-.49-1.75-.49-1.6 0-2.32 1.1-.72 1.09-.72 3.28"></path><rect width="14.29" height="15.28" x="-7.14" y="-7.64" fill="none" rx="0" ry="0" transform="translate(215.01 129.26)"></rect><path d="M238.51 121.4v14.74h-3.08l-.54-1.89h-.21q-.48.75-1.19 1.23-.71.47-1.57.7-.86.22-1.78.22-1.58 0-2.75-.56-1.18-.56-1.83-1.75-.65-1.18-.65-3.08v-9.61h4.02v8.61q0 1.58.56 2.38.57.81 1.81.81 1.23 0 1.93-.56.69-.56.98-1.65.28-1.09.28-2.66v-6.93Z"></path><rect width="13.6" height="15" x="-6.8" y="-7.5" fill="none" rx="0" ry="0" transform="translate(232.21 129.4)"></rect><path d="M247.04 142.62q-3.08 0-4.71-1.07-1.63-1.08-1.63-3.01 0-1.34.83-2.23.83-.9 2.44-1.28-.62-.26-1.08-.86-.46-.6-.46-1.28 0-.84.49-1.4.48-.56 1.41-1.1-1.16-.5-1.84-1.61-.68-1.11-.68-2.61 0-1.61.7-2.74.71-1.12 2.06-1.72 1.35-.59 3.29-.59.41 0 .95.05.54.06.99.12.46.07.62.11h5.14v2.04l-2.31.59q.32.49.48 1.05.15.55.15 1.17 0 2.37-1.65 3.7-1.65 1.32-4.59 1.32-.7-.04-1.32-.1-.31.23-.46.5-.16.26-.16.55 0 .29.24.48.25.19.74.29.49.1 1.23.1h2.51q2.42 0 3.7 1.04 1.27 1.04 1.27 3.06 0 2.59-2.16 4.01-2.15 1.42-6.19 1.42m.17-2.62q1.44 0 2.48-.27 1.03-.27 1.58-.77.56-.49.56-1.17 0-.56-.33-.88-.32-.32-.97-.46-.65-.13-1.67-.13h-2.08q-.74 0-1.33.24-.58.24-.93.66-.34.43-.34 1 0 .83.8 1.31.8.47 2.23.47m.65-11.18q1.13 0 1.66-.7t.53-1.9q0-1.33-.55-1.99-.55-.67-1.64-.67-1.11 0-1.66.67-.56.66-.56 1.99 0 1.2.55 1.9t1.67.7"></path><rect width="14.86" height="21.5" x="-7.43" y="-10.75" fill="none" rx="0" ry="0" transform="translate(248.63 132.37)"></rect><path d="M262.01 115.62v4.18q0 1.1-.08 2.09-.07.98-.11 1.39h.21q.48-.76 1.13-1.24.65-.47 1.44-.69.79-.23 1.7-.23 1.6 0 2.79.56 1.18.56 1.84 1.75.66 1.2.66 3.1v9.61h-4.02v-8.61q0-1.58-.58-2.39-.58-.8-1.79-.8-1.22 0-1.92.56-.69.56-.98 1.65-.29 1.08-.29 2.65v6.94h-4.03v-20.52Z"></path><rect width="13.61" height="20.52" x="-6.8" y="-10.26" fill="none" rx="0" ry="0" transform="translate(265.29 126.38)"></rect><path d="M281.94 133.2q.66 0 1.28-.13.63-.14 1.25-.33v2.99q-.65.29-1.6.48-.96.19-2.09.19-1.32 0-2.37-.43t-1.65-1.49q-.6-1.06-.6-2.96v-7.1h-1.92v-1.7l2.21-1.35 1.17-3.11h2.57v3.14h4.12v3.02h-4.12v7.1q0 .85.48 1.26.48.42 1.27.42"></path><rect width="10.23" height="18.14" x="-5.12" y="-9.07" fill="none" rx="0" ry="0" transform="translate(279.86 127.83)"></rect><path d="M297.73 131.76q0 1.5-.7 2.54-.71 1.03-2.1 1.57-1.4.53-3.49.53-1.54 0-2.64-.2-1.1-.19-2.22-.66v-3.32q1.2.54 2.58.89 1.38.35 2.42.35 1.17 0 1.68-.35.5-.35.5-.91 0-.37-.2-.67-.2-.3-.88-.67-.67-.38-2.11-.99-1.38-.58-2.27-1.17-.89-.59-1.32-1.4-.43-.81-.43-2.07 0-2.04 1.59-3.07 1.59-1.04 4.25-1.04 1.37 0 2.62.28 1.25.27 2.57.88l-1.22 2.9q-1.09-.47-2.06-.78-.97-.3-1.97-.3-.89 0-1.33.24-.45.24-.45.72 0 .36.23.64.23.27.9.61.66.33 1.95.86 1.26.52 2.18 1.08.92.56 1.42 1.38.5.82.5 2.13"></path><rect width="11.18" height="15.28" x="-5.59" y="-7.64" fill="none" rx="0" ry="0" transform="translate(292.64 129.26)"></rect><path d="M307.32 134.25q0-1.24.68-1.74t1.64-.5q.93 0 1.61.5t.68 1.74q0 1.19-.68 1.72-.68.52-1.61.52-.96 0-1.64-.52-.68-.53-.68-1.72"></path><rect width="4.61" height="4.48" x="-2.31" y="-2.24" fill="none" rx="0" ry="0" transform="translate(310.13 134.75)"></rect><path d="M192.2 159.25q0 1.85-.5 3.27-.49 1.42-1.43 2.41-.95.98-2.27 1.48-1.33.5-2.99.5-1.55 0-2.85-.5t-2.26-1.48q-.95-.99-1.47-2.41-.52-1.42-.52-3.27 0-2.45.87-4.15.87-1.7 2.48-2.59 1.6-.88 3.83-.88 2.07 0 3.67.88 1.61.89 2.52 2.59.92 1.7.92 4.15m-10.19 0q0 1.45.31 2.44.32.99.99 1.49.68.5 1.76.5 1.06 0 1.73-.5.67-.5.98-1.49.31-.99.31-2.44 0-1.46-.31-2.43-.31-.97-.99-1.46-.67-.49-1.75-.49-1.6 0-2.31 1.1-.72 1.09-.72 3.28"></path><rect width="14.29" height="15.28" x="-7.14" y="-7.64" fill="none" rx="0" ry="0" transform="translate(185.56 159.77)"></rect><path d="M203.72 151.63q2.49 0 4.03 1.94 1.53 1.94 1.53 5.68 0 2.51-.72 4.21-.73 1.71-2 2.58-1.28.87-2.94.87-1.07 0-1.84-.27-.76-.27-1.3-.7-.54-.43-.94-.91h-.21q.11.52.16 1.08.05.55.05 1.08v5.94h-4.02v-21.22h3.27l.57 1.91h.18q.4-.59.96-1.09.57-.51 1.37-.8.8-.3 1.85-.3m-1.29 3.22q-1.06 0-1.68.43-.61.44-.9 1.31-.28.87-.31 2.2v.43q0 1.43.27 2.42t.91 1.5q.64.51 1.76.51.92 0 1.52-.51.59-.51.89-1.51.29-.99.29-2.43 0-2.16-.67-3.26-.67-1.09-2.08-1.09"></path><rect width="13.76" height="21.5" x="-6.88" y="-10.75" fill="none" rx="0" ry="0" transform="translate(202.9 162.88)"></rect><path d="M216.63 151.91v14.74h-4.02v-14.74Zm-2.01-5.78q.9 0 1.55.42.64.41.64 1.55 0 1.12-.64 1.55-.65.43-1.55.43-.91 0-1.55-.43-.63-.43-.63-1.55 0-1.14.63-1.55.64-.42 1.55-.42"></path><rect width="4.37" height="20.52" x="-2.19" y="-10.26" fill="none" rx="0" ry="0" transform="translate(215.13 156.89)"></rect><path d="M229.22 151.63q2.36 0 3.79 1.29 1.44 1.28 1.44 4.12v9.61h-4.02v-8.61q0-1.58-.57-2.39-.58-.8-1.8-.8-1.85 0-2.52 1.25-.67 1.25-.67 3.61v6.94h-4.02v-14.74h3.07l.54 1.88h.22q.48-.76 1.18-1.24.71-.47 1.57-.69.87-.23 1.79-.23"></path><rect width="13.6" height="15.02" x="-6.8" y="-7.51" fill="none" rx="0" ry="0" transform="translate(228.15 159.64)"></rect><path d="M242.61 151.91v14.74h-4.02v-14.74Zm-2-5.78q.9 0 1.54.42.65.41.65 1.55 0 1.12-.65 1.55-.64.43-1.54.43-.91 0-1.55-.43t-.64-1.55q0-1.14.64-1.55.64-.42 1.55-.42"></path><rect width="4.38" height="20.52" x="-2.19" y="-10.26" fill="none" rx="0" ry="0" transform="translate(241.11 156.89)"></rect><path d="M260.23 159.25q0 1.85-.5 3.27-.49 1.42-1.44 2.41-.94.98-2.26 1.48-1.33.5-2.99.5-1.55 0-2.85-.5t-2.26-1.48q-.95-.99-1.47-2.41-.53-1.42-.53-3.27 0-2.45.88-4.15.87-1.7 2.47-2.59 1.61-.88 3.84-.88 2.07 0 3.67.88 1.6.89 2.52 2.59.92 1.7.92 4.15m-10.19 0q0 1.45.31 2.44.32.99.99 1.49.67.5 1.75.5 1.07 0 1.74-.5.66-.5.97-1.49.31-.99.31-2.44 0-1.46-.31-2.43-.31-.97-.98-1.46-.67-.49-1.75-.49-1.6 0-2.32 1.1-.71 1.09-.71 3.28"></path><rect width="14.3" height="15.28" x="-7.15" y="-7.64" fill="none" rx="0" ry="0" transform="translate(253.58 159.77)"></rect><path d="M271.92 151.63q2.36 0 3.8 1.29 1.43 1.28 1.43 4.12v9.61h-4.02v-8.61q0-1.58-.57-2.39-.57-.8-1.8-.8-1.85 0-2.52 1.25-.67 1.25-.67 3.61v6.94h-4.02v-14.74h3.07l.54 1.88h.22q.48-.76 1.18-1.24.71-.47 1.57-.69.87-.23 1.79-.23"></path><rect width="13.6" height="15.02" x="-6.8" y="-7.51" fill="none" rx="0" ry="0" transform="translate(270.85 159.64)"></rect><path d="M291.58 162.27q0 1.5-.71 2.54-.7 1.03-2.1 1.57-1.4.53-3.48.53-1.54 0-2.65-.2-1.1-.19-2.22-.66v-3.32q1.2.54 2.58.89 1.38.35 2.42.35 1.17 0 1.68-.35t.51-.91q0-.37-.21-.67-.2-.3-.87-.67-.68-.38-2.11-.99-1.39-.58-2.28-1.17-.89-.59-1.31-1.4-.43-.81-.43-2.07 0-2.04 1.59-3.07 1.58-1.04 4.25-1.04 1.37 0 2.61.28 1.25.27 2.57.88l-1.21 2.9q-1.1-.47-2.07-.78-.97-.3-1.97-.3-.88 0-1.33.24-.45.24-.45.72 0 .36.23.64.23.27.9.61.66.33 1.96.86 1.25.52 2.17 1.08.92.56 1.43 1.38.5.82.5 2.13"></path><rect width="11.18" height="15.28" x="-5.59" y="-7.64" fill="none" rx="0" ry="0" transform="translate(286.49 159.77)"></rect><path d="M308.17 164.76q0-1.24.68-1.74t1.64-.5q.94 0 1.62.5.68.5.68 1.74 0 1.19-.68 1.72-.68.52-1.62.52-.96 0-1.64-.52-.68-.53-.68-1.72"></path><rect width="4.62" height="4.48" x="-2.31" y="-2.24" fill="none" rx="0" ry="0" transform="translate(310.98 165.26)"></rect><path stroke="#000" stroke-width="3" d="m326.58 120.396.86 54.524"></path><path d="M342.22 136.87h5.99q3.85 0 5.83 1.08t1.98 3.79q0 1.1-.35 1.98-.35.88-1.01 1.45t-1.61.74v.13q.97.2 1.74.68.78.48 1.25 1.4.47.91.47 2.43 0 1.75-.86 3.01-.86 1.25-2.45 1.91-1.58.67-3.77.67h-7.21Zm4.08 7.63h2.38q1.78 0 2.46-.56.69-.56.69-1.66 0-1.1-.81-1.58-.82-.49-2.57-.49h-2.15Zm0 3.24v5.02h2.67q1.84 0 2.57-.71.72-.71.72-1.91 0-.71-.31-1.25-.32-.54-1.07-.85-.74-.3-2.05-.3Z"></path><rect width="14.29" height="19.27" x="-7.14" y="-9.63" fill="none" rx="0" ry="0" transform="translate(349.87 147)"></rect><path d="M360.36 156.14v-19.27h4.08v15.89h7.82v3.38Z"></path><rect width="11.9" height="19.27" x="-5.95" y="-9.63" fill="none" rx="0" ry="0" transform="translate(366.81 147)"></rect><path d="M393.1 146.48q0 2.22-.55 4.05-.55 1.83-1.68 3.14-1.13 1.32-2.85 2.03-1.73.7-4.09.7t-4.09-.7q-1.73-.71-2.85-2.03-1.13-1.31-1.68-3.15-.56-1.83-.56-4.07 0-2.99.98-5.21.99-2.23 3.03-3.45 2.04-1.23 5.19-1.23 3.14 0 5.17 1.23 2.02 1.22 3 3.45.98 2.23.98 5.24m-14.06 0q0 2.01.51 3.47.5 1.46 1.58 2.24 1.08.79 2.8.79 1.74 0 2.82-.79 1.08-.78 1.58-2.24.49-1.46.49-3.47 0-3.04-1.13-4.78-1.14-1.74-3.74-1.74-1.72 0-2.81.79-1.09.78-1.59 2.24-.51 1.46-.51 3.49"></path><rect width="18.35" height="19.84" x="-9.18" y="-9.92" fill="none" rx="0" ry="0" transform="translate(384.43 146.98)"></rect><path d="M404.42 145.32h7.64v9.99q-1.51.5-3.15.8-1.63.29-3.7.29-2.88 0-4.88-1.13t-3.05-3.35q-1.04-2.21-1.04-5.44 0-3.04 1.17-5.25 1.17-2.22 3.41-3.43 2.25-1.21 5.49-1.21 1.53 0 3.02.33t2.71.85l-1.36 3.27q-.89-.44-2.02-.75-1.13-.3-2.37-.3-1.78 0-3.09.82-1.32.81-2.03 2.28-.72 1.47-.72 3.47 0 1.88.51 3.34.52 1.45 1.62 2.28 1.11.82 2.89.82.87 0 1.47-.08.6-.09 1.13-.18v-4.02h-3.65Z"></path><rect width="15.82" height="19.81" x="-7.91" y="-9.9" fill="none" rx="0" ry="0" transform="translate(404.65 147)"></rect></svg></svg>