<?xml version="1.0" encoding="UTF-8"?>
<svg xmlns="http://www.w3.org/2000/svg" xmlns:xlink="http://www.w3.org/1999/xlink" width="2000px" height="2000px" viewBox="0 0 2000 2000" version="1.1">
<g id="surface1">
<path style=" stroke:none;fill-rule:nonzero;fill:rgb(0%,0%,0%);fill-opacity:1;" d="M 1004.089844 405.382812 C 1004.296875 414.46875 1004.398438 425.75 1004.398438 439.230469 C 1004.398438 452.199219 1004.296875 463.480469 1004.089844 473.078125 C 1004.296875 482.160156 1004.398438 493.441406 1004.398438 506.921875 C 1004.398438 519.890625 1004.296875 531.171875 1004.089844 540.769531 C 1004.296875 549.851562 1004.398438 561.136719 1004.398438 574.617188 C 1004.398438 587.582031 1004.296875 598.863281 1004.089844 608.460938 C 1004.296875 617.546875 1004.398438 628.828125 1004.398438 642.308594 C 1004.398438 655.273438 1004.296875 666.558594 1004.089844 676.152344 C 1004.296875 685.238281 1004.398438 696.519531 1004.398438 710 C 1004.398438 722.96875 1004.296875 734.25 1004.089844 743.847656 C 1004.296875 752.929688 1004.398438 764.210938 1004.398438 777.691406 C 1004.398438 790.660156 1004.296875 801.941406 1004.089844 811.539062 L 997.929688 811.539062 C 997.722656 801.941406 997.621094 790.660156 997.621094 777.691406 C 997.621094 764.210938 997.722656 752.929688 997.929688 743.847656 C 997.722656 734.25 997.621094 722.96875 997.621094 710 C 997.621094 696.519531 997.722656 685.238281 997.929688 676.152344 C 997.722656 666.558594 997.621094 655.273438 997.621094 642.308594 C 997.621094 628.828125 997.722656 617.546875 997.929688 608.460938 C 997.722656 598.863281 997.621094 587.582031 997.621094 574.617188 C 997.621094 561.136719 997.722656 549.851562 997.929688 540.769531 C 997.722656 531.171875 997.621094 519.890625 997.621094 506.921875 C 997.621094 493.441406 997.722656 482.160156 997.929688 473.078125 L 995.621094 473.078125 C 995.828125 482.160156 995.929688 493.441406 995.929688 506.921875 C 995.929688 519.890625 995.828125 531.171875 995.621094 540.769531 C 995.828125 549.851562 995.929688 561.136719 995.929688 574.617188 C 995.929688 587.582031 995.828125 598.863281 995.621094 608.460938 L 994.078125 608.460938 C 994.285156 617.546875 994.390625 628.828125 994.390625 642.308594 C 994.390625 655.273438 994.285156 666.558594 994.078125 676.152344 C 994.285156 685.238281 994.390625 696.519531 994.390625 710 C 994.390625 722.96875 994.285156 734.25 994.078125 743.847656 L 989.460938 743.847656 C 989.253906 734.25 989.148438 722.96875 989.148438 710 C 989.148438 696.519531 989.253906 685.238281 989.460938 676.152344 C 989.253906 666.558594 989.148438 655.273438 989.148438 642.308594 C 989.148438 628.828125 989.253906 617.546875 989.460938 608.460938 L 987.921875 608.460938 C 987.714844 598.863281 987.609375 587.582031 987.609375 574.617188 C 987.609375 561.136719 987.714844 549.851562 987.921875 540.769531 C 987.714844 531.171875 987.609375 519.890625 987.609375 506.921875 C 987.609375 493.441406 987.714844 482.160156 987.921875 473.078125 L 985.609375 473.078125 C 985.816406 482.160156 985.921875 493.441406 985.921875 506.921875 C 985.921875 519.890625 985.816406 531.171875 985.609375 540.769531 C 985.816406 549.851562 985.921875 561.136719 985.921875 574.617188 C 985.921875 587.582031 985.816406 598.863281 985.609375 608.460938 C 985.816406 617.546875 985.921875 628.828125 985.921875 642.308594 C 985.921875 655.273438 985.816406 666.558594 985.609375 676.152344 C 985.816406 685.238281 985.921875 696.519531 985.921875 710 C 985.921875 722.96875 985.816406 734.25 985.609375 743.847656 C 985.816406 752.929688 985.921875 764.210938 985.921875 777.691406 C 985.921875 790.660156 985.816406 801.941406 985.609375 811.539062 L 979.449219 811.539062 C 979.242188 801.941406 979.140625 790.660156 979.140625 777.691406 C 979.140625 764.210938 979.242188 752.929688 979.449219 743.847656 C 979.242188 734.25 979.140625 722.96875 979.140625 710 C 979.140625 696.519531 979.242188 685.238281 979.449219 676.152344 C 979.242188 666.558594 979.140625 655.273438 979.140625 642.308594 C 979.140625 628.828125 979.242188 617.546875 979.449219 608.460938 C 979.242188 598.863281 979.140625 587.582031 979.140625 574.617188 C 979.140625 561.136719 979.242188 549.851562 979.449219 540.769531 C 979.242188 531.171875 979.140625 519.890625 979.140625 506.921875 C 979.140625 493.441406 979.242188 482.160156 979.449219 473.078125 C 979.242188 463.480469 979.140625 452.199219 979.140625 439.230469 C 979.140625 425.75 979.242188 414.46875 979.449219 405.382812 C 979.242188 395.789062 979.140625 384.503906 979.140625 371.539062 C 979.140625 358.058594 979.242188 346.777344 979.449219 337.691406 L 987.148438 337.691406 C 987.355469 346.777344 987.460938 358.058594 987.460938 371.539062 C 987.460938 384.503906 987.355469 395.789062 987.148438 405.382812 L 989.460938 405.382812 C 989.667969 414.46875 989.769531 425.75 989.769531 439.230469 C 989.769531 452.199219 989.667969 463.480469 989.460938 473.078125 L 990.609375 473.078125 C 990.816406 482.160156 990.921875 493.441406 990.921875 506.921875 C 990.921875 519.890625 990.816406 531.171875 990.609375 540.769531 L 992.921875 540.769531 C 992.71875 531.171875 992.621094 519.890625 992.621094 506.921875 C 992.621094 493.441406 992.71875 482.160156 992.921875 473.078125 L 994.078125 473.078125 C 993.875 463.480469 993.769531 452.199219 993.769531 439.230469 C 993.769531 425.75 993.875 414.46875 994.078125 405.382812 L 996.390625 405.382812 C 996.183594 395.789062 996.078125 384.503906 996.078125 371.539062 C 996.078125 358.058594 996.183594 346.777344 996.390625 337.691406 L 1004.089844 337.691406 C 1004.296875 346.777344 1004.398438 358.058594 1004.398438 371.539062 C 1004.398438 384.503906 1004.296875 395.789062 1004.089844 405.382812 "/>
<path style=" stroke:none;fill-rule:nonzero;fill:rgb(0%,0%,0%);fill-opacity:1;" d="M 1034.890625 540.769531 C 1035.097656 549.851562 1035.199219 561.136719 1035.199219 574.617188 C 1035.199219 587.582031 1035.097656 598.863281 1034.890625 608.460938 C 1035.097656 617.546875 1035.199219 628.828125 1035.199219 642.308594 C 1035.199219 655.273438 1035.097656 666.558594 1034.890625 676.152344 L 1031.808594 676.152344 C 1032.015625 685.238281 1032.121094 696.519531 1032.121094 710 C 1032.121094 722.96875 1032.015625 734.25 1031.808594 743.847656 L 1028.730469 743.847656 C 1028.9375 752.929688 1029.039062 764.210938 1029.039062 777.691406 C 1029.039062 790.660156 1028.9375 801.941406 1028.730469 811.539062 L 1010.25 811.539062 C 1010.042969 801.941406 1009.941406 790.660156 1009.941406 777.691406 C 1009.941406 764.210938 1010.042969 752.929688 1010.25 743.847656 C 1010.042969 734.25 1009.941406 722.96875 1009.941406 710 C 1009.941406 696.519531 1010.042969 685.238281 1010.25 676.152344 C 1010.042969 666.558594 1009.941406 655.273438 1009.941406 642.308594 C 1009.941406 628.828125 1010.042969 617.546875 1010.25 608.460938 C 1010.042969 598.863281 1009.941406 587.582031 1009.941406 574.617188 C 1009.941406 561.136719 1010.042969 549.851562 1010.25 540.769531 C 1010.042969 531.171875 1009.941406 519.890625 1009.941406 506.921875 C 1009.941406 493.441406 1010.042969 482.160156 1010.25 473.078125 C 1010.042969 463.480469 1009.941406 452.199219 1009.941406 439.230469 C 1009.941406 425.75 1010.042969 414.46875 1010.25 405.382812 C 1010.042969 395.789062 1009.941406 384.503906 1009.941406 371.539062 C 1009.941406 358.058594 1010.042969 346.777344 1010.25 337.691406 L 1028.730469 337.691406 C 1028.9375 346.777344 1029.039062 358.058594 1029.039062 371.539062 C 1029.039062 384.503906 1028.9375 395.789062 1028.730469 405.382812 L 1031.808594 405.382812 C 1032.015625 414.46875 1032.121094 425.75 1032.121094 439.230469 C 1032.121094 452.199219 1032.015625 463.480469 1031.808594 473.078125 L 1034.890625 473.078125 C 1035.097656 482.160156 1035.199219 493.441406 1035.199219 506.921875 C 1035.199219 519.890625 1035.097656 531.171875 1034.890625 540.769531 M 1028.730469 676.152344 C 1028.523438 666.558594 1028.421875 655.273438 1028.421875 642.308594 C 1028.421875 628.828125 1028.523438 617.546875 1028.730469 608.460938 C 1028.523438 598.863281 1028.421875 587.582031 1028.421875 574.617188 C 1028.421875 561.136719 1028.523438 549.851562 1028.730469 540.769531 C 1028.523438 531.171875 1028.421875 519.890625 1028.421875 506.921875 C 1028.421875 493.441406 1028.523438 482.160156 1028.730469 473.078125 L 1025.648438 473.078125 C 1025.441406 463.480469 1025.339844 452.199219 1025.339844 439.230469 C 1025.339844 425.75 1025.441406 414.46875 1025.648438 405.382812 L 1016.410156 405.382812 C 1016.617188 414.46875 1016.71875 425.75 1016.71875 439.230469 C 1016.71875 452.199219 1016.617188 463.480469 1016.410156 473.078125 C 1016.617188 482.160156 1016.71875 493.441406 1016.71875 506.921875 C 1016.71875 519.890625 1016.617188 531.171875 1016.410156 540.769531 C 1016.617188 549.851562 1016.71875 561.136719 1016.71875 574.617188 C 1016.71875 587.582031 1016.617188 598.863281 1016.410156 608.460938 C 1016.617188 617.546875 1016.71875 628.828125 1016.71875 642.308594 C 1016.71875 655.273438 1016.617188 666.558594 1016.410156 676.152344 C 1016.617188 685.238281 1016.71875 696.519531 1016.71875 710 C 1016.71875 722.96875 1016.617188 734.25 1016.410156 743.847656 L 1025.648438 743.847656 C 1025.441406 734.25 1025.339844 722.96875 1025.339844 710 C 1025.339844 696.519531 1025.441406 685.238281 1025.648438 676.152344 Z M 1028.730469 676.152344 "/>
<path style=" stroke:none;fill-rule:nonzero;fill:rgb(0%,0%,0%);fill-opacity:1;" d="M 1061.070312 743.847656 C 1061.277344 752.929688 1061.378906 764.210938 1061.378906 777.691406 C 1061.378906 790.660156 1061.277344 801.941406 1061.070312 811.539062 L 1045.671875 811.539062 C 1045.464844 801.941406 1045.359375 790.660156 1045.359375 777.691406 C 1045.359375 764.210938 1045.464844 752.929688 1045.671875 743.847656 L 1050.289062 743.847656 C 1050.082031 734.25 1049.980469 722.96875 1049.980469 710 C 1049.980469 696.519531 1050.082031 685.238281 1050.289062 676.152344 C 1050.082031 666.558594 1049.980469 655.273438 1049.980469 642.308594 C 1049.980469 628.828125 1050.082031 617.546875 1050.289062 608.460938 C 1050.082031 598.863281 1049.980469 587.582031 1049.980469 574.617188 C 1049.980469 561.136719 1050.082031 549.851562 1050.289062 540.769531 C 1050.082031 531.171875 1049.980469 519.890625 1049.980469 506.921875 C 1049.980469 493.441406 1050.082031 482.160156 1050.289062 473.078125 C 1050.082031 463.480469 1049.980469 452.199219 1049.980469 439.230469 C 1049.980469 425.75 1050.082031 414.46875 1050.289062 405.382812 L 1045.671875 405.382812 C 1045.464844 395.789062 1045.359375 384.503906 1045.359375 371.539062 C 1045.359375 358.058594 1045.464844 346.777344 1045.671875 337.691406 L 1061.070312 337.691406 C 1061.277344 346.777344 1061.378906 358.058594 1061.378906 371.539062 C 1061.378906 384.503906 1061.277344 395.789062 1061.070312 405.382812 L 1056.449219 405.382812 C 1056.65625 414.46875 1056.761719 425.75 1056.761719 439.230469 C 1056.761719 452.199219 1056.65625 463.480469 1056.449219 473.078125 C 1056.65625 482.160156 1056.761719 493.441406 1056.761719 506.921875 C 1056.761719 519.890625 1056.65625 531.171875 1056.449219 540.769531 C 1056.65625 549.851562 1056.761719 561.136719 1056.761719 574.617188 C 1056.761719 587.582031 1056.65625 598.863281 1056.449219 608.460938 C 1056.65625 617.546875 1056.761719 628.828125 1056.761719 642.308594 C 1056.761719 655.273438 1056.65625 666.558594 1056.449219 676.152344 C 1056.65625 685.238281 1056.761719 696.519531 1056.761719 710 C 1056.761719 722.96875 1056.65625 734.25 1056.449219 743.847656 Z M 1061.070312 743.847656 "/>
<path style=" stroke:none;fill-rule:nonzero;fill:rgb(0%,0%,0%);fill-opacity:1;" d="M 1088.328125 710 C 1088.328125 722.96875 1088.226562 734.25 1088.019531 743.847656 C 1088.226562 752.929688 1088.328125 764.210938 1088.328125 777.691406 C 1088.328125 790.660156 1088.226562 801.941406 1088.019531 811.539062 L 1080.320312 811.539062 C 1080.113281 801.941406 1080.011719 790.660156 1080.011719 777.691406 C 1080.011719 764.210938 1080.113281 752.929688 1080.320312 743.847656 C 1080.113281 734.25 1080.011719 722.96875 1080.011719 710 C 1080.011719 696.519531 1080.113281 685.238281 1080.320312 676.152344 L 1088.019531 676.152344 C 1088.226562 685.238281 1088.328125 696.519531 1088.328125 710 "/>
<path style=" stroke:none;fill-rule:nonzero;fill:rgb(0%,0%,0%);fill-opacity:1;" d="M 1127.289062 540.769531 C 1127.496094 549.851562 1127.601562 561.136719 1127.601562 574.617188 C 1127.601562 587.582031 1127.496094 598.863281 1127.289062 608.460938 C 1127.496094 617.546875 1127.601562 628.828125 1127.601562 642.308594 C 1127.601562 655.273438 1127.496094 666.558594 1127.289062 676.152344 L 1124.210938 676.152344 C 1124.417969 685.238281 1124.519531 696.519531 1124.519531 710 C 1124.519531 722.96875 1124.417969 734.25 1124.210938 743.847656 L 1121.128906 743.847656 C 1121.335938 752.929688 1121.441406 764.210938 1121.441406 777.691406 C 1121.441406 790.660156 1121.335938 801.941406 1121.128906 811.539062 L 1102.648438 811.539062 C 1102.441406 801.941406 1102.339844 790.660156 1102.339844 777.691406 C 1102.339844 764.210938 1102.441406 752.929688 1102.648438 743.847656 C 1102.441406 734.25 1102.339844 722.96875 1102.339844 710 C 1102.339844 696.519531 1102.441406 685.238281 1102.648438 676.152344 C 1102.441406 666.558594 1102.339844 655.273438 1102.339844 642.308594 C 1102.339844 628.828125 1102.441406 617.546875 1102.648438 608.460938 C 1102.441406 598.863281 1102.339844 587.582031 1102.339844 574.617188 C 1102.339844 561.136719 1102.441406 549.851562 1102.648438 540.769531 C 1102.441406 531.171875 1102.339844 519.890625 1102.339844 506.921875 C 1102.339844 493.441406 1102.441406 482.160156 1102.648438 473.078125 C 1102.441406 463.480469 1102.339844 452.199219 1102.339844 439.230469 C 1102.339844 425.75 1102.441406 414.46875 1102.648438 405.382812 C 1102.441406 395.789062 1102.339844 384.503906 1102.339844 371.539062 C 1102.339844 358.058594 1102.441406 346.777344 1102.648438 337.691406 L 1121.128906 337.691406 C 1121.335938 346.777344 1121.441406 358.058594 1121.441406 371.539062 C 1121.441406 384.503906 1121.335938 395.789062 1121.128906 405.382812 L 1124.210938 405.382812 C 1124.417969 414.46875 1124.519531 425.75 1124.519531 439.230469 C 1124.519531 452.199219 1124.417969 463.480469 1124.210938 473.078125 L 1127.289062 473.078125 C 1127.496094 482.160156 1127.601562 493.441406 1127.601562 506.921875 C 1127.601562 519.890625 1127.496094 531.171875 1127.289062 540.769531 M 1121.128906 676.152344 C 1120.921875 666.558594 1120.820312 655.273438 1120.820312 642.308594 C 1120.820312 628.828125 1120.921875 617.546875 1121.128906 608.460938 C 1120.921875 598.863281 1120.820312 587.582031 1120.820312 574.617188 C 1120.820312 561.136719 1120.921875 549.851562 1121.128906 540.769531 C 1120.921875 531.171875 1120.820312 519.890625 1120.820312 506.921875 C 1120.820312 493.441406 1120.921875 482.160156 1121.128906 473.078125 L 1118.050781 473.078125 C 1117.84375 463.480469 1117.738281 452.199219 1117.738281 439.230469 C 1117.738281 425.75 1117.84375 414.46875 1118.050781 405.382812 L 1108.808594 405.382812 C 1109.015625 414.46875 1109.121094 425.75 1109.121094 439.230469 C 1109.121094 452.199219 1109.015625 463.480469 1108.808594 473.078125 C 1109.015625 482.160156 1109.121094 493.441406 1109.121094 506.921875 C 1109.121094 519.890625 1109.015625 531.171875 1108.808594 540.769531 C 1109.015625 549.851562 1109.121094 561.136719 1109.121094 574.617188 C 1109.121094 587.582031 1109.015625 598.863281 1108.808594 608.460938 C 1109.015625 617.546875 1109.121094 628.828125 1109.121094 642.308594 C 1109.121094 655.273438 1109.015625 666.558594 1108.808594 676.152344 C 1109.015625 685.238281 1109.121094 696.519531 1109.121094 710 C 1109.121094 722.96875 1109.015625 734.25 1108.808594 743.847656 L 1118.050781 743.847656 C 1117.84375 734.25 1117.738281 722.96875 1117.738281 710 C 1117.738281 696.519531 1117.84375 685.238281 1118.050781 676.152344 Z M 1121.128906 676.152344 "/>
<path style=" stroke:none;fill-rule:nonzero;fill:rgb(0%,0%,0%);fill-opacity:1;" d="M 1142.691406 608.460938 C 1142.898438 617.546875 1143 628.828125 1143 642.308594 C 1143 655.273438 1142.898438 666.558594 1142.691406 676.152344 C 1142.898438 685.238281 1143 696.519531 1143 710 C 1143 722.96875 1142.898438 734.25 1142.691406 743.847656 L 1155.011719 743.847656 C 1155.214844 752.929688 1155.320312 764.210938 1155.320312 777.691406 C 1155.320312 790.660156 1155.214844 801.941406 1155.011719 811.539062 L 1136.53125 811.539062 C 1136.324219 801.941406 1136.21875 790.660156 1136.21875 777.691406 C 1136.21875 764.210938 1136.324219 752.929688 1136.53125 743.847656 C 1136.324219 734.25 1136.21875 722.96875 1136.21875 710 C 1136.21875 696.519531 1136.324219 685.238281 1136.53125 676.152344 C 1136.324219 666.558594 1136.21875 655.273438 1136.21875 642.308594 C 1136.21875 628.828125 1136.324219 617.546875 1136.53125 608.460938 C 1136.324219 598.863281 1136.21875 587.582031 1136.21875 574.617188 C 1136.21875 561.136719 1136.324219 549.851562 1136.53125 540.769531 C 1136.324219 531.171875 1136.21875 519.890625 1136.21875 506.921875 C 1136.21875 493.441406 1136.324219 482.160156 1136.53125 473.078125 C 1136.324219 463.480469 1136.21875 452.199219 1136.21875 439.230469 C 1136.21875 425.75 1136.324219 414.46875 1136.53125 405.382812 C 1136.324219 395.789062 1136.21875 384.503906 1136.21875 371.539062 C 1136.21875 358.058594 1136.324219 346.777344 1136.53125 337.691406 L 1155.011719 337.691406 C 1155.214844 346.777344 1155.320312 358.058594 1155.320312 371.539062 C 1155.320312 384.503906 1155.214844 395.789062 1155.011719 405.382812 L 1142.691406 405.382812 C 1142.898438 414.46875 1143 425.75 1143 439.230469 C 1143 452.199219 1142.898438 463.480469 1142.691406 473.078125 C 1142.898438 482.160156 1143 493.441406 1143 506.921875 C 1143 519.890625 1142.898438 531.171875 1142.691406 540.769531 L 1155.011719 540.769531 C 1155.214844 549.851562 1155.320312 561.136719 1155.320312 574.617188 C 1155.320312 587.582031 1155.214844 598.863281 1155.011719 608.460938 Z M 1142.691406 608.460938 "/>
<path style=" stroke:none;fill-rule:nonzero;fill:rgb(0%,0%,0%);fill-opacity:1;" d="M 1188.890625 405.382812 C 1189.097656 414.46875 1189.199219 425.75 1189.199219 439.230469 C 1189.199219 452.199219 1189.097656 463.480469 1188.890625 473.078125 C 1189.097656 482.160156 1189.199219 493.441406 1189.199219 506.921875 C 1189.199219 519.890625 1189.097656 531.171875 1188.890625 540.769531 L 1186.578125 540.769531 C 1186.785156 549.851562 1186.890625 561.136719 1186.890625 574.617188 C 1186.890625 587.582031 1186.785156 598.863281 1186.578125 608.460938 L 1184.269531 608.460938 C 1184.476562 617.546875 1184.578125 628.828125 1184.578125 642.308594 C 1184.578125 655.273438 1184.476562 666.558594 1184.269531 676.152344 L 1182.730469 676.152344 C 1182.9375 685.238281 1183.039062 696.519531 1183.039062 710 C 1183.039062 722.96875 1182.9375 734.25 1182.730469 743.847656 L 1179.648438 743.847656 C 1179.855469 752.929688 1179.960938 764.210938 1179.960938 777.691406 C 1179.960938 790.660156 1179.855469 801.941406 1179.648438 811.539062 L 1173.488281 811.539062 C 1173.285156 801.941406 1173.179688 790.660156 1173.179688 777.691406 C 1173.179688 764.210938 1173.285156 752.929688 1173.488281 743.847656 L 1170.410156 743.847656 C 1170.203125 734.25 1170.101562 722.96875 1170.101562 710 C 1170.101562 696.519531 1170.203125 685.238281 1170.410156 676.152344 L 1168.871094 676.152344 C 1168.664062 666.558594 1168.558594 655.273438 1168.558594 642.308594 C 1168.558594 628.828125 1168.664062 617.546875 1168.871094 608.460938 L 1166.558594 608.460938 C 1166.351562 598.863281 1166.25 587.582031 1166.25 574.617188 C 1166.25 561.136719 1166.351562 549.851562 1166.558594 540.769531 L 1164.25 540.769531 C 1164.042969 531.171875 1163.941406 519.890625 1163.941406 506.921875 C 1163.941406 493.441406 1164.042969 482.160156 1164.25 473.078125 C 1164.042969 463.480469 1163.941406 452.199219 1163.941406 439.230469 C 1163.941406 425.75 1164.042969 414.46875 1164.25 405.382812 C 1164.042969 395.789062 1163.941406 384.503906 1163.941406 371.539062 C 1163.941406 358.058594 1164.042969 346.777344 1164.25 337.691406 L 1170.410156 337.691406 C 1170.617188 346.777344 1170.71875 358.058594 1170.71875 371.539062 C 1170.71875 384.503906 1170.617188 395.789062 1170.410156 405.382812 C 1170.617188 414.46875 1170.71875 425.75 1170.71875 439.230469 C 1170.71875 452.199219 1170.617188 463.480469 1170.410156 473.078125 C 1170.617188 482.160156 1170.71875 493.441406 1170.71875 506.921875 C 1170.71875 519.890625 1170.617188 531.171875 1170.410156 540.769531 L 1172.71875 540.769531 C 1172.925781 549.851562 1173.03125 561.136719 1173.03125 574.617188 C 1173.03125 587.582031 1172.925781 598.863281 1172.71875 608.460938 L 1175.03125 608.460938 C 1175.238281 617.546875 1175.339844 628.828125 1175.339844 642.308594 C 1175.339844 655.273438 1175.238281 666.558594 1175.03125 676.152344 L 1178.109375 676.152344 C 1177.902344 666.558594 1177.800781 655.273438 1177.800781 642.308594 C 1177.800781 628.828125 1177.902344 617.546875 1178.109375 608.460938 L 1180.421875 608.460938 C 1180.214844 598.863281 1180.109375 587.582031 1180.109375 574.617188 C 1180.109375 561.136719 1180.214844 549.851562 1180.421875 540.769531 L 1182.730469 540.769531 C 1182.523438 531.171875 1182.421875 519.890625 1182.421875 506.921875 C 1182.421875 493.441406 1182.523438 482.160156 1182.730469 473.078125 C 1182.523438 463.480469 1182.421875 452.199219 1182.421875 439.230469 C 1182.421875 425.75 1182.523438 414.46875 1182.730469 405.382812 C 1182.523438 395.789062 1182.421875 384.503906 1182.421875 371.539062 C 1182.421875 358.058594 1182.523438 346.777344 1182.730469 337.691406 L 1188.890625 337.691406 C 1189.097656 346.777344 1189.199219 358.058594 1189.199219 371.539062 C 1189.199219 384.503906 1189.097656 395.789062 1188.890625 405.382812 "/>
<path style="fill:none;stroke-width:3.93;stroke-linecap:butt;stroke-linejoin:miter;stroke:rgb(0%,0%,0%);stroke-opacity:1;stroke-miterlimit:4;" d="M 143.878906 1.83102 L 143.878906 180.170047 " transform="matrix(1,0,0,10.989011,786.5,0)"/>
<path style="fill-rule:nonzero;fill:rgb(0%,0%,0%);fill-opacity:1;stroke-width:3;stroke-linecap:butt;stroke-linejoin:miter;stroke:rgb(0%,0%,0%);stroke-opacity:1;stroke-miterlimit:4;" d="M 178.195312 97.618117 L 421.402344 95.170004 " transform="matrix(1,0,0,10.989011,786.5,0)"/>
<path style=" stroke:none;fill-rule:nonzero;fill:rgb(0%,0%,0%);fill-opacity:1;" d="M 799.9375 1140.339844 L 799.9375 964.199219 L 793.214844 964.199219 L 793.214844 1002.023438 L 795.847656 1002.023438 L 795.847656 1140.339844 Z M 820.175781 1002.023438 L 822.796875 1002.023438 L 822.796875 1140.339844 L 826.886719 1140.339844 L 826.886719 964.199219 L 820.175781 964.199219 Z M 807.6875 1211.824219 L 810.304688 1211.824219 L 810.304688 1350.023438 L 814.398438 1350.023438 L 814.398438 1173.878906 L 807.6875 1173.878906 Z M 807.6875 1416.867188 L 810.304688 1416.867188 L 810.304688 1555.1875 L 814.398438 1555.1875 L 814.398438 1379.042969 L 807.6875 1379.042969 Z M 820.175781 1211.8125 L 822.796875 1211.8125 L 822.796875 1350.023438 L 826.886719 1350.023438 L 826.886719 1173.878906 L 820.175781 1173.878906 Z M 813.558594 966.558594 C 812.785156 962.894531 811.953125 960.953125 811.109375 960.847656 C 810.277344 960.925781 809.457031 962.710938 808.683594 966.109375 C 806.257812 976.800781 805.066406 999.394531 805.066406 1027.734375 L 805.066406 1076.746094 C 805.066406 1104.855469 806.28125 1127.230469 808.660156 1138.175781 C 809.441406 1141.757812 810.265625 1143.636719 811.109375 1143.636719 C 812.019531 1143.636719 812.929688 1141.472656 813.75 1137.230469 C 816.003906 1125.800781 817.019531 1103.175781 817.019531 1076.746094 L 817.019531 1027.734375 C 817.019531 1000.132812 815.894531 977.757812 813.558594 966.558594 M 812.929688 1077.976562 C 812.929688 1091.757812 812.519531 1104.121094 811.042969 1104.121094 C 809.636719 1104.121094 809.160156 1091.503906 809.160156 1077.96875 L 809.160156 1026.558594 C 809.160156 1013.21875 809.636719 1000.375 811.042969 1000.375 C 812.515625 1000.375 812.929688 1012.734375 812.929688 1026.558594 Z M 887.429688 1211.824219 L 890.0625 1211.824219 L 890.0625 1350.023438 L 894.152344 1350.023438 L 894.152344 1173.878906 L 887.429688 1173.878906 Z M 887.429688 1416.867188 L 890.0625 1416.867188 L 890.0625 1555.1875 L 894.152344 1555.1875 L 894.152344 1379.042969 L 887.429688 1379.042969 Z M 893.304688 966.558594 C 892.53125 962.894531 891.699219 960.953125 890.859375 960.847656 C 890.027344 960.929688 889.203125 962.714844 888.433594 966.109375 C 886.007812 976.800781 884.816406 999.394531 884.816406 1027.734375 L 884.816406 1076.746094 C 884.816406 1104.855469 886.027344 1127.230469 888.410156 1138.175781 C 889.191406 1141.757812 890.011719 1143.636719 890.859375 1143.636719 C 891.769531 1143.652344 892.671875 1141.464844 893.5 1137.230469 C 895.753906 1125.800781 896.769531 1103.175781 896.769531 1076.746094 L 896.769531 1027.734375 C 896.769531 1000.132812 895.644531 977.757812 893.304688 966.558594 M 892.675781 1077.976562 C 892.675781 1091.757812 892.265625 1104.121094 890.792969 1104.121094 C 889.382812 1104.121094 888.910156 1091.503906 888.910156 1077.96875 L 888.910156 1026.558594 C 888.910156 1013.21875 889.382812 1000.375 890.792969 1000.375 C 892.265625 1000.375 892.675781 1012.734375 892.675781 1026.558594 Z M 869.476562 1350.023438 L 869.476562 1173.878906 L 862.765625 1173.878906 L 862.765625 1211.824219 L 865.386719 1211.824219 L 865.386719 1350.023438 Z M 875.253906 1211.824219 L 877.875 1211.824219 L 877.875 1350.023438 L 881.964844 1350.023438 L 881.964844 1173.878906 L 875.253906 1173.878906 Z M 868.632812 1381.441406 C 867.859375 1377.789062 867.027344 1375.851562 866.1875 1375.734375 C 865.355469 1375.808594 864.53125 1377.582031 863.761719 1380.96875 C 861.335938 1391.671875 860.140625 1414.285156 860.140625 1442.59375 L 860.140625 1491.636719 C 860.140625 1519.703125 861.355469 1542.109375 863.738281 1553.066406 C 864.511719 1556.648438 865.34375 1558.503906 866.1875 1558.527344 C 867.097656 1558.527344 868.003906 1556.363281 868.824219 1552.078125 C 871.078125 1540.660156 872.097656 1518.066406 872.097656 1491.636719 L 872.097656 1442.59375 C 872.097656 1415 870.972656 1392.660156 868.632812 1381.441406 M 868.003906 1492.824219 C 868.003906 1506.648438 867.59375 1519.011719 866.121094 1519.011719 C 864.714844 1519.011719 864.238281 1506.394531 864.238281 1492.824219 L 864.238281 1441.449219 C 864.238281 1428.109375 864.714844 1415.230469 866.121094 1415.230469 C 867.59375 1415.230469 868.003906 1427.648438 868.003906 1441.449219 Z M 799.089844 1176.308594 C 798.316406 1172.640625 797.484375 1170.707031 796.640625 1170.617188 C 795.820312 1170.617188 794.996094 1172.484375 794.21875 1175.835938 C 791.792969 1186.539062 790.601562 1209.144531 790.601562 1237.503906 L 790.601562 1286.515625 C 790.601562 1314.582031 791.8125 1336.957031 794.195312 1347.933594 C 794.972656 1351.496094 795.800781 1353.339844 796.640625 1353.363281 C 797.554688 1353.363281 798.460938 1351.242188 799.285156 1346.957031 C 801.535156 1335.527344 802.554688 1312.945312 802.554688 1286.515625 L 802.554688 1237.503906 C 802.554688 1209.855469 801.429688 1187.503906 799.089844 1176.308594 M 798.460938 1287.691406 C 798.460938 1301.515625 798.050781 1313.867188 796.578125 1313.867188 C 795.171875 1313.867188 794.695312 1301.230469 794.695312 1287.691406 L 794.695312 1236.265625 C 794.695312 1222.957031 795.171875 1210.121094 796.578125 1210.121094 C 798.050781 1210.121094 798.460938 1222.484375 798.460938 1236.273438 Z M 840.425781 1140.339844 L 840.425781 964.199219 L 833.714844 964.199219 L 833.714844 1002.023438 L 836.335938 1002.023438 L 836.335938 1140.339844 Z M 848.175781 1211.824219 L 850.796875 1211.824219 L 850.796875 1350.023438 L 854.898438 1350.023438 L 854.898438 1173.878906 L 848.175781 1173.878906 Z M 848.175781 1416.867188 L 850.796875 1416.867188 L 850.796875 1555.1875 L 854.898438 1555.1875 L 854.898438 1379.042969 L 848.175781 1379.042969 Z M 839.582031 1176.320312 C 838.808594 1172.644531 837.972656 1170.703125 837.132812 1170.605469 C 836.308594 1170.605469 835.488281 1172.496094 834.707031 1175.835938 C 832.28125 1186.539062 831.089844 1209.144531 831.089844 1237.503906 L 831.089844 1286.515625 C 831.089844 1314.582031 832.304688 1336.957031 834.6875 1347.933594 C 835.460938 1351.496094 836.292969 1353.339844 837.132812 1353.363281 C 838.042969 1353.363281 838.953125 1351.242188 839.773438 1346.957031 C 842.027344 1335.527344 843.042969 1312.945312 843.042969 1286.515625 L 843.042969 1237.503906 C 843.046875 1209.855469 841.917969 1187.503906 839.582031 1176.308594 M 838.953125 1287.679688 C 838.953125 1301.503906 838.539062 1313.855469 837.066406 1313.855469 C 835.660156 1313.855469 835.183594 1301.21875 835.183594 1287.679688 L 835.183594 1236.265625 C 835.183594 1222.957031 835.660156 1210.121094 837.066406 1210.121094 C 838.539062 1210.121094 838.953125 1222.484375 838.953125 1236.273438 Z M 838.953125 1287.679688 "/>
<path style=" stroke:none;fill-rule:nonzero;fill:rgb(0%,0%,0%);fill-opacity:1;" d="M 878.664062 931.703125 L 879.898438 931.703125 L 892.488281 931.957031 L 892.949219 926.878906 C 896.074219 891.152344 898.003906 842.691406 898.003906 789.363281 C 898.003906 691.417969 891.515625 609.835938 883.019531 593.648438 C 883.003906 593.617188 882.984375 593.582031 882.964844 593.570312 C 881.464844 500.515625 874.058594 429.582031 865.167969 429.582031 C 856.792969 429.582031 849.734375 492.515625 847.6875 577.617188 C 844.484375 549.160156 840.488281 533.652344 836.367188 533.679688 C 827.363281 533.679688 819.878906 606.40625 818.511719 701.207031 C 815.589844 680.242188 812.171875 669.09375 808.683594 669.121094 C 798.710938 669.121094 790.601562 758.265625 790.601562 867.800781 C 790.601562 889.382812 790.917969 910.175781 791.5 929.617188 L 791.503906 929.835938 L 791.507812 929.835938 L 797.769531 929.945312 L 819.570312 930.429688 L 825.832031 930.558594 L 834.40625 930.757812 L 835.394531 930.769531 C 835.714844 930.957031 836.042969 931.054688 836.367188 931.054688 L 836.367188 930.769531 L 838.328125 930.8125 C 838.34375 930.78125 838.359375 930.769531 838.375 930.746094 L 844.988281 930.933594 C 845.59375 947.828125 846.40625 963.734375 847.402344 978.207031 C 846.175781 990.351562 845.558594 1007.550781 845.558594 1027.734375 L 845.558594 1076.746094 C 845.558594 1104.855469 846.769531 1127.230469 849.152344 1138.175781 C 849.933594 1141.757812 850.753906 1143.636719 851.601562 1143.636719 C 852.511719 1143.636719 853.421875 1141.472656 854.242188 1137.230469 C 856.492188 1125.800781 857.511719 1103.175781 857.511719 1076.746094 L 857.511719 1051.910156 C 858.367188 1054.230469 859.246094 1055.847656 860.140625 1056.769531 L 860.140625 1076.746094 C 860.140625 1104.855469 861.355469 1127.230469 863.738281 1138.175781 C 864.511719 1141.773438 865.347656 1143.632812 866.1875 1143.636719 C 867.097656 1143.65625 868 1141.46875 868.828125 1137.230469 C 871.078125 1125.800781 872.097656 1103.175781 872.097656 1076.746094 L 872.097656 1022.539062 C 872.902344 1016.378906 873.664062 1009.519531 874.367188 1002.023438 L 877.867188 1002.023438 L 877.867188 1140.320312 L 881.964844 1140.320312 L 881.964844 964.199219 L 877.15625 964.199219 C 877.75 953.898438 878.253906 943.023438 878.664062 931.703125 M 823.164062 868.441406 L 820.976562 868.40625 L 796.386719 867.855469 L 796.386719 867.78125 C 796.386719 793.273438 801.902344 732.648438 808.683594 732.648438 C 813.328125 732.648438 817.382812 761.144531 819.472656 803.011719 C 819.460938 802.707031 819.453125 802.398438 819.441406 802.089844 C 820.289062 826.738281 821.570312 849.292969 823.21875 868.449219 Z M 853.421875 1077.976562 C 853.421875 1091.757812 853.007812 1104.121094 851.535156 1104.121094 C 850.128906 1104.121094 849.652344 1091.503906 849.652344 1077.96875 L 849.652344 1026.558594 C 849.652344 1020.1875 849.765625 1013.96875 850.03125 1009.164062 C 851.070312 1019.054688 852.207031 1027.613281 853.421875 1034.679688 Z M 868.003906 1077.976562 C 868.003906 1091.757812 867.59375 1104.121094 866.121094 1104.121094 C 864.714844 1104.121094 864.238281 1091.503906 864.238281 1077.96875 L 864.238281 1055.878906 C 865.523438 1053.996094 866.785156 1050.585938 868.003906 1045.703125 Z M 861.84375 994.109375 C 855.367188 994.109375 850.050781 938.847656 849.585938 868.988281 L 849.585938 868.945312 L 843.78125 868.089844 L 843.789062 868.855469 L 835.734375 868.648438 C 829.246094 864.945312 824.074219 804.472656 824.074219 732.308594 C 824.074219 657.867188 829.589844 597.265625 836.371094 597.265625 C 843.152344 597.265625 848.667969 657.855469 848.667969 732.375 L 854.453125 732.375 C 854.453125 728.671875 854.441406 724.988281 854.421875 721.351562 C 854.417969 720.308594 854.40625 719.230469 854.402344 718.207031 C 854.386719 715.558594 854.363281 712.914062 854.335938 710.273438 L 854.304688 707.375 C 854.273438 704.507812 854.234375 701.648438 854.191406 698.800781 L 854.167969 697.328125 C 854.003906 687.496094 853.777344 677.8125 853.484375 668.351562 L 852.878906 628.242188 C 852.878906 553.734375 858.394531 493.121094 865.175781 493.121094 C 870.890625 493.121094 875.703125 536.199219 877.078125 594.375 C 877.605469 615.066406 877.621094 636.777344 877.175781 657.617188 C 878.078125 655.351562 879 654.199219 879.925781 654.1875 C 881.003906 654.1875 882.054688 655.726562 883.050781 658.636719 C 888.320312 673.867188 892.222656 726.679688 892.222656 789.308594 C 892.222656 818.324219 891.371094 846.570312 889.792969 869.824219 L 874.085938 869.605469 C 874.089844 869.746094 874.097656 869.878906 874.101562 870.011719 C 874.007812 884.09375 873.699219 897.90625 873.195312 910.890625 C 871.339844 959.679688 866.949219 994.109375 861.84375 994.109375 M 971.511719 1463.734375 C 971.949219 1463.734375 972.378906 1463.261719 972.800781 1462.308594 C 973.21875 1461.28125 973.632812 1460.074219 974.039062 1458.679688 L 974.039062 1491.539062 C 973.613281 1493.664062 973.078125 1495.421875 972.441406 1496.8125 C 971.808594 1498.207031 971.109375 1498.902344 970.351562 1498.902344 C 969.476562 1498.902344 968.691406 1497.324219 967.988281 1494.175781 C 967.289062 1491.027344 966.738281 1485.566406 966.339844 1477.800781 C 965.941406 1470.035156 965.738281 1459.195312 965.738281 1445.273438 L 965.738281 1367.253906 L 963.808594 1367.253906 L 963.808594 1348.570312 L 966.03125 1333.734375 L 967.191406 1299.558594 L 969.761719 1299.558594 L 969.761719 1334.066406 L 973.890625 1334.066406 L 973.890625 1367.253906 L 969.761719 1367.253906 L 969.761719 1445.273438 C 969.761719 1451.5 969.921875 1456.117188 970.238281 1459.121094 C 970.558594 1462.199219 970.984375 1463.734375 971.511719 1463.734375 "/>
<path style=" stroke:none;fill-rule:nonzero;fill:rgb(0%,0%,0%);fill-opacity:1;" d="M 981.050781 1270.550781 L 981.050781 1316.484375 C 981.050781 1324.542969 981.023438 1332.199219 980.96875 1339.449219 C 980.921875 1346.628906 980.886719 1351.722656 980.859375 1354.726562 L 981.070312 1354.726562 C 981.390625 1349.15625 981.765625 1344.617188 982.199219 1341.097656 C 982.632812 1337.65625 983.113281 1335.128906 983.640625 1333.515625 C 984.167969 1331.832031 984.734375 1330.988281 985.339844 1330.988281 C 986.40625 1330.988281 987.332031 1333.039062 988.121094 1337.144531 C 988.914062 1341.246094 989.53125 1347.65625 989.96875 1356.375 C 990.410156 1365.164062 990.628906 1376.519531 990.628906 1390.441406 L 990.628906 1496.042969 L 986.609375 1496.042969 L 986.609375 1401.429688 C 986.609375 1389.851562 986.417969 1381.097656 986.03125 1375.164062 C 985.644531 1369.304688 985.046875 1366.375 984.238281 1366.375 C 983.425781 1366.375 982.785156 1368.425781 982.320312 1372.527344 C 981.859375 1376.628906 981.535156 1382.675781 981.339844 1390.660156 C 981.148438 1398.570312 981.050781 1408.277344 981.050781 1419.78125 L 981.050781 1496.042969 L 977.019531 1496.042969 L 977.019531 1270.550781 Z M 981.050781 1270.550781 "/>
<path style=" stroke:none;fill-rule:nonzero;fill:rgb(0%,0%,0%);fill-opacity:1;" d="M 1008.160156 1414.726562 C 1008.160156 1428.277344 1007.996094 1440.257812 1007.671875 1450.660156 C 1007.34375 1461.0625 1006.863281 1469.890625 1006.230469 1477.144531 C 1005.601562 1484.324219 1004.847656 1489.742188 1003.960938 1493.40625 C 1003.078125 1497.070312 1002.085938 1498.902344 1000.980469 1498.902344 C 999.941406 1498.902344 998.988281 1497.070312 998.121094 1493.40625 C 997.261719 1489.742188 996.511719 1484.324219 995.871094 1477.144531 C 995.230469 1469.890625 994.738281 1461.0625 994.390625 1450.660156 C 994.042969 1440.257812 993.871094 1428.277344 993.871094 1414.726562 C 993.871094 1396.777344 994.160156 1381.574219 994.738281 1369.121094 C 995.320312 1356.667969 996.148438 1347.179688 997.21875 1340.660156 C 998.292969 1334.210938 999.574219 1330.988281 1001.058594 1330.988281 C 1002.441406 1330.988281 1003.664062 1334.210938 1004.730469 1340.660156 C 1005.796875 1347.179688 1006.636719 1356.667969 1007.25 1369.121094 C 1007.855469 1381.574219 1008.160156 1396.777344 1008.160156 1414.726562 M 997.96875 1414.726562 C 997.96875 1425.347656 998.078125 1434.285156 998.289062 1441.539062 C 998.503906 1448.792969 998.832031 1454.25 999.28125 1457.910156 C 999.726562 1461.574219 1000.308594 1463.40625 1001.03125 1463.40625 C 1001.742188 1463.40625 1002.324219 1461.574219 1002.769531 1457.910156 C 1003.210938 1454.25 1003.535156 1448.792969 1003.738281 1441.539062 C 1003.945312 1434.285156 1004.050781 1425.347656 1004.050781 1414.726562 C 1004.050781 1404.03125 1003.945312 1395.128906 1003.738281 1388.023438 C 1003.535156 1380.914062 1003.207031 1375.566406 1002.761719 1371.976562 C 1002.3125 1368.386719 1001.730469 1366.59375 1001.011719 1366.59375 C 999.941406 1366.59375 999.171875 1370.621094 998.691406 1378.679688 C 998.210938 1386.667969 997.96875 1398.679688 997.96875 1414.726562 "/>
<path style=" stroke:none;fill-rule:nonzero;fill:rgb(0%,0%,0%);fill-opacity:1;" d="M 1025.011719 1334.066406 L 1025.011719 1496.042969 L 1021.929688 1496.042969 L 1021.390625 1475.273438 L 1021.179688 1475.273438 C 1020.859375 1480.769531 1020.464844 1485.273438 1019.988281 1488.792969 C 1019.515625 1492.234375 1018.992188 1494.796875 1018.421875 1496.484375 C 1017.847656 1498.09375 1017.253906 1498.902344 1016.640625 1498.902344 C 1015.585938 1498.902344 1014.671875 1496.851562 1013.890625 1492.746094 C 1013.101562 1488.644531 1012.492188 1482.234375 1012.058594 1473.515625 C 1011.625 1464.871094 1011.410156 1453.589844 1011.410156 1439.671875 L 1011.410156 1334.066406 L 1015.429688 1334.066406 L 1015.429688 1428.679688 C 1015.429688 1440.257812 1015.617188 1448.972656 1015.988281 1454.835938 C 1016.371094 1460.769531 1016.972656 1463.734375 1017.800781 1463.734375 C 1018.621094 1463.734375 1019.261719 1461.683594 1019.730469 1457.582031 C 1020.191406 1453.480469 1020.515625 1447.4375 1020.710938 1439.449219 C 1020.898438 1431.464844 1020.988281 1421.722656 1020.988281 1410.21875 L 1020.988281 1334.066406 Z M 1025.011719 1334.066406 "/>
<path style=" stroke:none;fill-rule:nonzero;fill:rgb(0%,0%,0%);fill-opacity:1;" d="M 1033.539062 1567.253906 C 1031.488281 1567.253906 1029.917969 1563.332031 1028.828125 1555.496094 C 1027.742188 1547.582031 1027.199219 1536.558594 1027.199219 1522.417969 C 1027.199219 1512.601562 1027.476562 1504.433594 1028.03125 1497.910156 C 1028.582031 1491.320312 1029.398438 1486.628906 1030.46875 1483.847656 C 1030.058594 1481.941406 1029.695312 1478.792969 1029.390625 1474.394531 C 1029.082031 1470 1028.929688 1465.3125 1028.929688 1460.328125 C 1028.929688 1454.175781 1029.09375 1449.046875 1029.421875 1444.945312 C 1029.738281 1440.84375 1030.210938 1436.8125 1030.828125 1432.855469 C 1030.058594 1429.195312 1029.441406 1423.296875 1028.988281 1415.164062 C 1028.535156 1407.03125 1028.308594 1397.472656 1028.308594 1386.484375 C 1028.308594 1374.6875 1028.542969 1364.652344 1029.011719 1356.375 C 1029.484375 1348.167969 1030.171875 1341.867188 1031.070312 1337.472656 C 1031.96875 1333.148438 1033.066406 1330.988281 1034.359375 1330.988281 C 1034.632812 1330.988281 1034.949219 1331.171875 1035.308594 1331.539062 C 1035.671875 1331.976562 1036 1332.417969 1036.300781 1332.855469 C 1036.605469 1333.371094 1036.8125 1333.773438 1036.921875 1334.066406 L 1042.058594 1334.066406 L 1042.058594 1356.484375 L 1039.75 1362.96875 C 1039.964844 1366.558594 1040.125 1370.402344 1040.230469 1374.503906 C 1040.328125 1378.535156 1040.378906 1382.820312 1040.378906 1387.363281 C 1040.378906 1404.726562 1039.828125 1418.277344 1038.730469 1428.023438 C 1037.628906 1437.691406 1036.101562 1442.527344 1034.140625 1442.527344 C 1033.671875 1442.234375 1033.234375 1441.867188 1032.820312 1441.429688 C 1032.613281 1443.113281 1032.460938 1444.945312 1032.359375 1446.921875 C 1032.253906 1448.828125 1032.199219 1450.84375 1032.199219 1452.96875 C 1032.199219 1455.089844 1032.28125 1456.851562 1032.441406 1458.242188 C 1032.605469 1459.632812 1032.851562 1460.695312 1033.179688 1461.429688 C 1033.507812 1462.160156 1033.917969 1462.527344 1034.410156 1462.527344 L 1036.921875 1462.527344 C 1038.535156 1462.527344 1039.765625 1466.335938 1040.621094 1473.957031 C 1041.464844 1481.574219 1041.890625 1492.785156 1041.890625 1507.582031 C 1041.890625 1526.558594 1041.171875 1541.246094 1039.730469 1551.648438 C 1038.296875 1562.050781 1036.234375 1567.253906 1033.539062 1567.253906 M 1033.710938 1538.460938 C 1034.671875 1538.460938 1035.496094 1537.472656 1036.191406 1535.496094 C 1036.875 1533.515625 1037.402344 1530.695312 1037.769531 1527.03125 C 1038.144531 1523.441406 1038.328125 1519.15625 1038.328125 1514.175781 C 1038.328125 1510.074219 1038.21875 1506.851562 1038 1504.503906 C 1037.785156 1502.160156 1037.464844 1500.476562 1037.03125 1499.449219 C 1036.597656 1498.5 1036.039062 1498.023438 1035.359375 1498.023438 L 1033.28125 1498.023438 C 1032.785156 1498.023438 1032.34375 1498.902344 1031.949219 1500.660156 C 1031.5625 1502.417969 1031.253906 1504.835938 1031.019531 1507.910156 C 1030.792969 1511.0625 1030.679688 1514.726562 1030.679688 1518.902344 C 1030.679688 1524.980469 1030.945312 1529.78125 1031.480469 1533.296875 C 1032.011719 1536.738281 1032.757812 1538.460938 1033.710938 1538.460938 M 1034.359375 1415.605469 C 1035.113281 1415.605469 1035.667969 1413.039062 1036.019531 1407.910156 C 1036.375 1402.785156 1036.550781 1395.824219 1036.550781 1387.03125 C 1036.550781 1377.289062 1036.367188 1370 1036 1365.164062 C 1035.632812 1360.257812 1035.085938 1357.800781 1034.359375 1357.800781 C 1033.621094 1357.800781 1033.066406 1360.257812 1032.699219 1365.164062 C 1032.328125 1370 1032.140625 1377.289062 1032.140625 1387.03125 C 1032.140625 1395.824219 1032.324219 1402.785156 1032.691406 1407.910156 C 1033.058594 1413.039062 1033.613281 1415.605469 1034.359375 1415.605469 "/>
<path style=" stroke:none;fill-rule:nonzero;fill:rgb(0%,0%,0%);fill-opacity:1;" d="M 1048.511719 1270.550781 L 1048.511719 1316.484375 C 1048.511719 1324.542969 1048.484375 1332.199219 1048.429688 1339.449219 C 1048.382812 1346.628906 1048.347656 1351.722656 1048.320312 1354.726562 L 1048.53125 1354.726562 C 1048.851562 1349.15625 1049.226562 1344.617188 1049.660156 1341.097656 C 1050.09375 1337.65625 1050.574219 1335.128906 1051.101562 1333.515625 C 1051.625 1331.832031 1052.191406 1330.988281 1052.800781 1330.988281 C 1053.867188 1330.988281 1054.796875 1333.039062 1055.589844 1337.144531 C 1056.375 1341.246094 1056.988281 1347.65625 1057.429688 1356.375 C 1057.871094 1365.164062 1058.089844 1376.519531 1058.089844 1390.441406 L 1058.089844 1496.042969 L 1054.070312 1496.042969 L 1054.070312 1401.429688 C 1054.070312 1389.851562 1053.875 1381.097656 1053.488281 1375.164062 C 1053.101562 1369.304688 1052.507812 1366.375 1051.699219 1366.375 C 1050.886719 1366.375 1050.246094 1368.425781 1049.78125 1372.527344 C 1049.320312 1376.628906 1048.992188 1382.675781 1048.800781 1390.660156 C 1048.605469 1398.570312 1048.511719 1408.277344 1048.511719 1419.78125 L 1048.511719 1496.042969 L 1044.480469 1496.042969 L 1044.480469 1270.550781 Z M 1048.511719 1270.550781 "/>
<path style=" stroke:none;fill-rule:nonzero;fill:rgb(0%,0%,0%);fill-opacity:1;" d="M 1068.441406 1463.734375 C 1068.878906 1463.734375 1069.308594 1463.261719 1069.71875 1462.308594 C 1070.140625 1461.28125 1070.558594 1460.074219 1070.96875 1458.679688 L 1070.96875 1491.539062 C 1070.535156 1493.664062 1070.003906 1495.421875 1069.371094 1496.8125 C 1068.730469 1498.207031 1068.035156 1498.902344 1067.28125 1498.902344 C 1066.398438 1498.902344 1065.609375 1497.324219 1064.910156 1494.175781 C 1064.210938 1491.027344 1063.660156 1485.566406 1063.261719 1477.800781 C 1062.859375 1470.035156 1062.660156 1459.195312 1062.660156 1445.273438 L 1062.660156 1367.253906 L 1060.738281 1367.253906 L 1060.738281 1348.570312 L 1062.949219 1333.734375 L 1064.121094 1299.558594 L 1066.691406 1299.558594 L 1066.691406 1334.066406 L 1070.808594 1334.066406 L 1070.808594 1367.253906 L 1066.691406 1367.253906 L 1066.691406 1445.273438 C 1066.691406 1451.5 1066.851562 1456.117188 1067.171875 1459.121094 C 1067.488281 1462.199219 1067.914062 1463.734375 1068.441406 1463.734375 "/>
<path style=" stroke:none;fill-rule:nonzero;fill:rgb(0%,0%,0%);fill-opacity:1;" d="M 1084.230469 1447.910156 C 1084.230469 1458.902344 1083.996094 1468.207031 1083.53125 1475.824219 C 1083.058594 1483.371094 1082.355469 1489.121094 1081.429688 1493.078125 C 1080.496094 1496.960938 1079.332031 1498.902344 1077.941406 1498.902344 C 1076.914062 1498.902344 1076.035156 1498.167969 1075.300781 1496.703125 C 1074.566406 1495.3125 1073.828125 1492.894531 1073.078125 1489.449219 L 1073.078125 1452.96875 C 1073.878906 1456.921875 1074.738281 1460.183594 1075.660156 1462.746094 C 1076.578125 1465.3125 1077.386719 1466.59375 1078.078125 1466.59375 C 1078.859375 1466.59375 1079.421875 1465.3125 1079.761719 1462.746094 C 1080.09375 1460.183594 1080.261719 1456.851562 1080.261719 1452.746094 C 1080.261719 1450.035156 1080.191406 1447.582031 1080.058594 1445.382812 C 1079.925781 1443.1875 1079.632812 1440.734375 1079.179688 1438.023438 C 1078.734375 1435.238281 1078.03125 1431.613281 1077.070312 1427.144531 C 1076.148438 1422.894531 1075.394531 1418.609375 1074.800781 1414.285156 C 1074.207031 1409.964844 1073.765625 1404.835938 1073.480469 1398.902344 C 1073.191406 1392.96875 1073.050781 1385.382812 1073.050781 1376.152344 C 1073.050781 1361.207031 1073.578125 1349.964844 1074.640625 1342.417969 C 1075.699219 1334.796875 1077.117188 1330.988281 1078.890625 1330.988281 C 1079.804688 1330.988281 1080.675781 1332.015625 1081.511719 1334.066406 C 1082.34375 1336.042969 1083.199219 1339.265625 1084.078125 1343.734375 L 1082.859375 1375.605469 C 1082.132812 1372.160156 1081.445312 1369.304688 1080.800781 1367.03125 C 1080.152344 1364.835938 1079.496094 1363.734375 1078.828125 1363.734375 C 1078.238281 1363.734375 1077.792969 1364.617188 1077.5 1366.375 C 1077.199219 1368.132812 1077.050781 1370.769531 1077.050781 1374.285156 C 1077.050781 1376.921875 1077.125 1379.265625 1077.28125 1381.320312 C 1077.433594 1383.296875 1077.734375 1385.53125 1078.179688 1388.023438 C 1078.621094 1390.441406 1079.269531 1393.589844 1080.128906 1397.472656 C 1080.96875 1401.28125 1081.695312 1405.238281 1082.308594 1409.339844 C 1082.921875 1413.441406 1083.398438 1418.5 1083.730469 1424.503906 C 1084.0625 1430.511719 1084.230469 1438.316406 1084.230469 1447.910156 "/>
<path style=" stroke:none;fill-rule:nonzero;fill:rgb(0%,0%,0%);fill-opacity:1;" d="M 1093.820312 1475.273438 C 1093.820312 1466.191406 1094.046875 1459.816406 1094.5 1456.152344 C 1094.953125 1452.492188 1095.5 1450.660156 1096.140625 1450.660156 C 1096.761719 1450.660156 1097.296875 1452.492188 1097.75 1456.152344 C 1098.203125 1459.816406 1098.429688 1466.191406 1098.429688 1475.273438 C 1098.429688 1483.992188 1098.203125 1490.292969 1097.75 1494.175781 C 1097.296875 1497.984375 1096.761719 1499.890625 1096.140625 1499.890625 C 1095.5 1499.890625 1094.953125 1497.984375 1094.5 1494.175781 C 1094.046875 1490.292969 1093.820312 1483.992188 1093.820312 1475.273438 "/>
<path style=" stroke:none;fill-rule:nonzero;fill:rgb(0%,0%,0%);fill-opacity:1;" d="M 978.699219 1750 C 978.699219 1763.554688 978.535156 1775.53125 978.199219 1785.933594 C 977.875 1796.335938 977.398438 1805.164062 976.769531 1812.417969 C 976.136719 1819.597656 975.378906 1825.019531 974.5 1828.679688 C 973.613281 1832.34375 972.617188 1834.175781 971.511719 1834.175781 C 970.476562 1834.175781 969.527344 1832.34375 968.660156 1828.679688 C 967.792969 1825.019531 967.039062 1819.597656 966.398438 1812.417969 C 965.765625 1805.164062 965.277344 1796.335938 964.929688 1785.933594 C 964.582031 1775.53125 964.410156 1763.554688 964.410156 1750 C 964.410156 1732.050781 964.699219 1716.851562 965.28125 1704.394531 C 965.859375 1691.941406 966.6875 1682.453125 967.761719 1675.933594 C 968.828125 1669.488281 970.101562 1666.265625 971.589844 1666.265625 C 972.96875 1666.265625 974.191406 1669.488281 975.261719 1675.933594 C 976.332031 1682.453125 977.171875 1691.941406 977.78125 1704.394531 C 978.394531 1716.851562 978.699219 1732.050781 978.699219 1750 M 968.511719 1750 C 968.511719 1760.621094 968.613281 1769.558594 968.820312 1776.8125 C 969.035156 1784.066406 969.363281 1789.523438 969.808594 1793.1875 C 970.261719 1796.851562 970.851562 1798.679688 971.570312 1798.679688 C 972.277344 1798.679688 972.851562 1796.851562 973.300781 1793.1875 C 973.746094 1789.523438 974.074219 1784.066406 974.28125 1776.8125 C 974.488281 1769.558594 974.589844 1760.621094 974.589844 1750 C 974.589844 1739.304688 974.488281 1730.402344 974.28125 1723.296875 C 974.074219 1716.191406 973.742188 1710.84375 973.289062 1707.253906 C 972.84375 1703.664062 972.261719 1701.867188 971.539062 1701.867188 C 970.472656 1701.867188 969.703125 1705.898438 969.230469 1713.957031 C 968.75 1721.941406 968.511719 1733.957031 968.511719 1750 "/>
<path style=" stroke:none;fill-rule:nonzero;fill:rgb(0%,0%,0%);fill-opacity:1;" d="M 990.21875 1666.265625 C 991.878906 1666.265625 993.222656 1673.371094 994.25 1687.582031 C 995.269531 1701.792969 995.78125 1722.601562 995.78125 1750 C 995.78125 1768.386719 995.539062 1783.808594 995.058594 1796.265625 C 994.574219 1808.792969 993.90625 1818.242188 993.058594 1824.617188 C 992.207031 1830.988281 991.226562 1834.175781 990.121094 1834.175781 C 989.40625 1834.175781 988.792969 1833.1875 988.28125 1831.207031 C 987.773438 1829.230469 987.339844 1826.667969 986.980469 1823.515625 C 986.621094 1820.367188 986.308594 1817.03125 986.039062 1813.515625 L 985.828125 1813.515625 C 985.902344 1817.324219 985.957031 1821.28125 985.988281 1825.382812 C 986.023438 1829.414062 986.039062 1833.371094 986.039062 1837.253906 L 986.039062 1902.527344 L 982.019531 1902.527344 L 982.019531 1669.339844 L 985.289062 1669.339844 L 985.859375 1690.328125 L 986.039062 1690.328125 C 986.308594 1686.007812 986.625 1682.015625 987 1678.351562 C 987.378906 1674.617188 987.835938 1671.683594 988.371094 1669.558594 C 988.902344 1667.363281 989.519531 1666.265625 990.21875 1666.265625 M 988.929688 1701.648438 C 988.222656 1701.648438 987.664062 1703.222656 987.25 1706.375 C 986.84375 1709.597656 986.542969 1714.394531 986.351562 1720.769531 C 986.164062 1727.144531 986.058594 1735.203125 986.039062 1744.945312 L 986.039062 1749.671875 C 986.039062 1760.148438 986.128906 1769.011719 986.308594 1776.265625 C 986.488281 1783.515625 986.792969 1789.011719 987.21875 1792.746094 C 987.648438 1796.484375 988.234375 1798.351562 988.980469 1798.351562 C 989.59375 1798.351562 990.101562 1796.484375 990.5 1792.746094 C 990.894531 1789.011719 991.191406 1783.480469 991.390625 1776.152344 C 991.582031 1768.902344 991.679688 1760 991.679688 1749.449219 C 991.679688 1733.625 991.457031 1721.683594 991.011719 1713.625 C 990.5625 1705.640625 989.871094 1701.648438 988.929688 1701.648438 "/>
<path style=" stroke:none;fill-rule:nonzero;fill:rgb(0%,0%,0%);fill-opacity:1;" d="M 1003.128906 1669.339844 L 1003.128906 1831.320312 L 999.109375 1831.320312 L 999.109375 1669.339844 Z M 1001.121094 1605.824219 C 1001.71875 1605.824219 1002.238281 1607.363281 1002.671875 1610.441406 C 1003.097656 1613.441406 1003.308594 1619.121094 1003.308594 1627.472656 C 1003.308594 1635.675781 1003.097656 1641.355469 1002.671875 1644.503906 C 1002.238281 1647.65625 1001.71875 1649.230469 1001.121094 1649.230469 C 1000.511719 1649.230469 999.996094 1647.65625 999.570312 1644.503906 C 999.148438 1641.355469 998.941406 1635.675781 998.941406 1627.472656 C 998.941406 1619.121094 999.148438 1613.441406 999.570312 1610.441406 C 999.996094 1607.363281 1000.511719 1605.824219 1001.121094 1605.824219 "/>
<path style=" stroke:none;fill-rule:nonzero;fill:rgb(0%,0%,0%);fill-opacity:1;" d="M 1015.71875 1666.265625 C 1017.292969 1666.265625 1018.558594 1670.988281 1019.511719 1680.441406 C 1020.46875 1689.816406 1020.949219 1704.910156 1020.949219 1725.714844 L 1020.949219 1831.320312 L 1016.929688 1831.320312 L 1016.929688 1736.703125 C 1016.929688 1725.128906 1016.738281 1716.375 1016.359375 1710.441406 C 1015.972656 1704.578125 1015.375 1701.648438 1014.558594 1701.648438 C 1013.328125 1701.648438 1012.488281 1706.226562 1012.039062 1715.382812 C 1011.59375 1724.542969 1011.371094 1737.765625 1011.371094 1755.054688 L 1011.371094 1831.320312 L 1007.351562 1831.320312 L 1007.351562 1669.339844 L 1010.421875 1669.339844 L 1010.960938 1690 L 1011.179688 1690 C 1011.5 1684.433594 1011.894531 1679.890625 1012.359375 1676.375 C 1012.832031 1672.929688 1013.355469 1670.402344 1013.929688 1668.792969 C 1014.511719 1667.105469 1015.105469 1666.265625 1015.71875 1666.265625 "/>
<path style=" stroke:none;fill-rule:nonzero;fill:rgb(0%,0%,0%);fill-opacity:1;" d="M 1029.109375 1669.339844 L 1029.109375 1831.320312 L 1025.089844 1831.320312 L 1025.089844 1669.339844 Z M 1027.109375 1605.824219 C 1027.710938 1605.824219 1028.222656 1607.363281 1028.648438 1610.441406 C 1029.082031 1613.441406 1029.300781 1619.121094 1029.300781 1627.472656 C 1029.300781 1635.675781 1029.082031 1641.355469 1028.648438 1644.503906 C 1028.222656 1647.65625 1027.710938 1649.230469 1027.109375 1649.230469 C 1026.503906 1649.230469 1025.988281 1647.65625 1025.558594 1644.503906 C 1025.132812 1641.355469 1024.921875 1635.675781 1024.921875 1627.472656 C 1024.921875 1619.121094 1025.132812 1613.441406 1025.558594 1610.441406 C 1025.988281 1607.363281 1026.503906 1605.824219 1027.109375 1605.824219 "/>
<path style=" stroke:none;fill-rule:nonzero;fill:rgb(0%,0%,0%);fill-opacity:1;" d="M 1046.730469 1750 C 1046.730469 1763.554688 1046.5625 1775.53125 1046.230469 1785.933594 C 1045.902344 1796.335938 1045.421875 1805.164062 1044.789062 1812.417969 C 1044.164062 1819.597656 1043.410156 1825.019531 1042.53125 1828.679688 C 1041.644531 1832.34375 1040.648438 1834.175781 1039.539062 1834.175781 C 1038.507812 1834.175781 1037.558594 1832.34375 1036.691406 1828.679688 C 1035.824219 1825.019531 1035.070312 1819.597656 1034.429688 1812.417969 C 1033.796875 1805.164062 1033.308594 1796.335938 1032.960938 1785.933594 C 1032.605469 1775.53125 1032.429688 1763.554688 1032.429688 1750 C 1032.429688 1732.050781 1032.722656 1716.851562 1033.308594 1704.394531 C 1033.890625 1691.941406 1034.714844 1682.453125 1035.78125 1675.933594 C 1036.851562 1669.488281 1038.132812 1666.265625 1039.621094 1666.265625 C 1041 1666.265625 1042.222656 1669.488281 1043.289062 1675.933594 C 1044.355469 1682.453125 1045.195312 1691.941406 1045.808594 1704.394531 C 1046.421875 1716.851562 1046.730469 1732.050781 1046.730469 1750 M 1036.539062 1750 C 1036.539062 1760.621094 1036.644531 1769.558594 1036.851562 1776.8125 C 1037.0625 1784.066406 1037.394531 1789.523438 1037.839844 1793.1875 C 1038.285156 1796.851562 1038.871094 1798.679688 1039.589844 1798.679688 C 1040.304688 1798.679688 1040.882812 1796.851562 1041.328125 1793.1875 C 1041.769531 1789.523438 1042.09375 1784.066406 1042.300781 1776.8125 C 1042.507812 1769.558594 1042.609375 1760.621094 1042.609375 1750 C 1042.609375 1739.304688 1042.507812 1730.402344 1042.300781 1723.296875 C 1042.09375 1716.191406 1041.765625 1710.84375 1041.320312 1707.253906 C 1040.875 1703.664062 1040.289062 1701.867188 1039.570312 1701.867188 C 1038.503906 1701.867188 1037.730469 1705.898438 1037.25 1713.957031 C 1036.777344 1721.941406 1036.539062 1733.957031 1036.539062 1750 "/>
<path style=" stroke:none;fill-rule:nonzero;fill:rgb(0%,0%,0%);fill-opacity:1;" d="M 1058.421875 1666.265625 C 1059.992188 1666.265625 1061.261719 1670.988281 1062.21875 1680.441406 C 1063.171875 1689.816406 1063.648438 1704.910156 1063.648438 1725.714844 L 1063.648438 1831.320312 L 1059.628906 1831.320312 L 1059.628906 1736.703125 C 1059.628906 1725.128906 1059.441406 1716.375 1059.058594 1710.441406 C 1058.679688 1704.578125 1058.078125 1701.648438 1057.261719 1701.648438 C 1056.027344 1701.648438 1055.1875 1706.226562 1054.738281 1715.382812 C 1054.292969 1724.542969 1054.070312 1737.765625 1054.070312 1755.054688 L 1054.070312 1831.320312 L 1050.050781 1831.320312 L 1050.050781 1669.339844 L 1053.121094 1669.339844 L 1053.660156 1690 L 1053.878906 1690 C 1054.199219 1684.433594 1054.59375 1679.890625 1055.058594 1676.375 C 1055.535156 1672.929688 1056.058594 1670.402344 1056.628906 1668.792969 C 1057.210938 1667.105469 1057.808594 1666.265625 1058.421875 1666.265625 "/>
<path style=" stroke:none;fill-rule:nonzero;fill:rgb(0%,0%,0%);fill-opacity:1;" d="M 1078.078125 1783.1875 C 1078.078125 1794.175781 1077.84375 1803.480469 1077.371094 1811.097656 C 1076.902344 1818.644531 1076.203125 1824.394531 1075.269531 1828.351562 C 1074.335938 1832.234375 1073.175781 1834.175781 1071.789062 1834.175781 C 1070.761719 1834.175781 1069.878906 1833.441406 1069.140625 1831.976562 C 1068.40625 1830.585938 1067.667969 1828.167969 1066.921875 1824.726562 L 1066.921875 1788.242188 C 1067.71875 1792.199219 1068.578125 1795.457031 1069.5 1798.023438 C 1070.421875 1800.585938 1071.226562 1801.867188 1071.921875 1801.867188 C 1072.699219 1801.867188 1073.261719 1800.585938 1073.601562 1798.023438 C 1073.941406 1795.457031 1074.109375 1792.125 1074.109375 1788.023438 C 1074.109375 1785.3125 1074.039062 1782.855469 1073.898438 1780.660156 C 1073.765625 1778.460938 1073.476562 1776.007812 1073.03125 1773.296875 C 1072.578125 1770.511719 1071.875 1766.886719 1070.921875 1762.417969 C 1069.992188 1758.167969 1069.234375 1753.882812 1068.640625 1749.558594 C 1068.046875 1745.238281 1067.609375 1740.109375 1067.328125 1734.175781 C 1067.042969 1728.242188 1066.898438 1720.660156 1066.898438 1711.429688 C 1066.898438 1696.484375 1067.429688 1685.238281 1068.488281 1677.691406 C 1069.542969 1670.074219 1070.960938 1666.265625 1072.738281 1666.265625 C 1073.652344 1666.265625 1074.523438 1667.289062 1075.351562 1669.339844 C 1076.183594 1671.320312 1077.039062 1674.542969 1077.921875 1679.011719 L 1076.710938 1710.878906 C 1075.976562 1707.4375 1075.285156 1704.578125 1074.640625 1702.308594 C 1073.992188 1700.109375 1073.335938 1699.011719 1072.671875 1699.011719 C 1072.082031 1699.011719 1071.640625 1699.890625 1071.339844 1701.648438 C 1071.039062 1703.40625 1070.890625 1706.042969 1070.890625 1709.558594 C 1070.890625 1712.199219 1070.964844 1714.542969 1071.121094 1716.59375 C 1071.273438 1718.570312 1071.574219 1720.804688 1072.019531 1723.296875 C 1072.460938 1725.714844 1073.113281 1728.863281 1073.980469 1732.746094 C 1074.8125 1736.558594 1075.535156 1740.511719 1076.148438 1744.617188 C 1076.761719 1748.71875 1077.238281 1753.773438 1077.578125 1759.78125 C 1077.914062 1765.789062 1078.078125 1773.589844 1078.078125 1783.1875 "/>
<path style=" stroke:none;fill-rule:nonzero;fill:rgb(0%,0%,0%);fill-opacity:1;" d="M 1094.671875 1810.550781 C 1094.671875 1801.464844 1094.898438 1795.089844 1095.351562 1791.429688 C 1095.804688 1787.765625 1096.351562 1785.933594 1096.988281 1785.933594 C 1097.617188 1785.933594 1098.15625 1787.765625 1098.609375 1791.429688 C 1099.0625 1795.089844 1099.289062 1801.464844 1099.289062 1810.550781 C 1099.289062 1819.265625 1099.0625 1825.566406 1098.609375 1829.449219 C 1098.15625 1833.261719 1097.617188 1835.164062 1096.988281 1835.164062 C 1096.351562 1835.164062 1095.804688 1833.261719 1095.351562 1829.449219 C 1094.898438 1825.566406 1094.671875 1819.265625 1094.671875 1810.550781 "/>
<path style="fill-rule:nonzero;fill:rgb(0%,0%,0%);fill-opacity:1;stroke-width:3;stroke-linecap:butt;stroke-linejoin:miter;stroke:rgb(0%,0%,0%);stroke-opacity:1;stroke-miterlimit:4;" d="M 326.578125 120.395844 L 327.441406 174.920129 " transform="matrix(1,0,0,10.989011,786.5,0)"/>
<path style=" stroke:none;fill-rule:nonzero;fill:rgb(0%,0%,0%);fill-opacity:1;" d="M 1128.71875 1504.066406 L 1134.710938 1504.066406 C 1137.277344 1504.066406 1139.21875 1508.023438 1140.539062 1515.933594 C 1141.859375 1523.847656 1142.519531 1537.730469 1142.519531 1557.582031 C 1142.519531 1565.640625 1142.402344 1572.894531 1142.171875 1579.339844 C 1141.9375 1585.789062 1141.601562 1591.097656 1141.160156 1595.273438 C 1140.71875 1599.449219 1140.183594 1602.160156 1139.550781 1603.40625 L 1139.550781 1604.835938 C 1140.195312 1606.300781 1140.777344 1608.792969 1141.289062 1612.308594 C 1141.808594 1615.824219 1142.226562 1620.953125 1142.539062 1627.691406 C 1142.851562 1634.359375 1143.011719 1643.261719 1143.011719 1654.394531 C 1143.011719 1667.214844 1142.722656 1678.242188 1142.148438 1687.472656 C 1141.578125 1696.628906 1140.761719 1703.625 1139.699219 1708.460938 C 1138.648438 1713.371094 1137.390625 1715.824219 1135.929688 1715.824219 L 1128.71875 1715.824219 Z M 1132.800781 1587.910156 L 1135.179688 1587.910156 C 1136.367188 1587.910156 1137.1875 1585.859375 1137.640625 1581.757812 C 1138.101562 1577.65625 1138.328125 1571.574219 1138.328125 1563.515625 C 1138.328125 1555.457031 1138.058594 1549.671875 1137.519531 1546.152344 C 1136.972656 1542.5625 1136.117188 1540.769531 1134.949219 1540.769531 L 1132.800781 1540.769531 Z M 1132.800781 1623.515625 L 1132.800781 1678.679688 L 1135.46875 1678.679688 C 1136.695312 1678.679688 1137.554688 1676.082031 1138.039062 1670.878906 C 1138.519531 1665.675781 1138.761719 1658.679688 1138.761719 1649.890625 C 1138.761719 1644.6875 1138.65625 1640.109375 1138.449219 1636.152344 C 1138.238281 1632.199219 1137.878906 1629.085938 1137.378906 1626.8125 C 1136.886719 1624.617188 1136.203125 1623.515625 1135.328125 1623.515625 Z M 1132.800781 1623.515625 "/>
<path style=" stroke:none;fill-rule:nonzero;fill:rgb(0%,0%,0%);fill-opacity:1;" d="M 1146.859375 1715.824219 L 1146.859375 1504.066406 L 1150.941406 1504.066406 L 1150.941406 1678.679688 L 1158.761719 1678.679688 L 1158.761719 1715.824219 Z M 1146.859375 1715.824219 "/>
<path style=" stroke:none;fill-rule:nonzero;fill:rgb(0%,0%,0%);fill-opacity:1;" d="M 1179.601562 1609.671875 C 1179.601562 1625.933594 1179.417969 1640.769531 1179.050781 1654.175781 C 1178.683594 1667.582031 1178.125 1679.085938 1177.371094 1688.679688 C 1176.617188 1698.351562 1175.667969 1705.789062 1174.519531 1710.988281 C 1173.367188 1716.117188 1172.003906 1718.679688 1170.429688 1718.679688 C 1168.855469 1718.679688 1167.492188 1716.117188 1166.339844 1710.988281 C 1165.1875 1705.789062 1164.238281 1698.351562 1163.488281 1688.679688 C 1162.738281 1679.085938 1162.175781 1667.546875 1161.808594 1654.066406 C 1161.4375 1640.660156 1161.25 1625.75 1161.25 1609.339844 C 1161.25 1587.4375 1161.578125 1568.351562 1162.230469 1552.089844 C 1162.890625 1535.75 1163.898438 1523.113281 1165.261719 1514.175781 C 1166.621094 1505.164062 1168.351562 1500.660156 1170.449219 1500.660156 C 1172.542969 1500.660156 1174.265625 1505.164062 1175.621094 1514.175781 C 1176.964844 1523.113281 1177.964844 1535.75 1178.621094 1552.089844 C 1179.273438 1568.425781 1179.601562 1587.617188 1179.601562 1609.671875 M 1165.539062 1609.671875 C 1165.539062 1624.394531 1165.710938 1637.105469 1166.050781 1647.800781 C 1166.382812 1658.5 1166.910156 1666.703125 1167.628906 1672.417969 C 1168.351562 1678.207031 1169.285156 1681.097656 1170.429688 1681.097656 C 1171.589844 1681.097656 1172.53125 1678.207031 1173.25 1672.417969 C 1173.96875 1666.703125 1174.496094 1658.5 1174.828125 1647.800781 C 1175.15625 1637.105469 1175.320312 1624.394531 1175.320312 1609.671875 C 1175.320312 1587.398438 1174.941406 1569.890625 1174.191406 1557.144531 C 1173.429688 1544.394531 1172.183594 1538.023438 1170.449219 1538.023438 C 1169.304688 1538.023438 1168.367188 1540.914062 1167.640625 1546.703125 C 1166.914062 1552.417969 1166.382812 1560.621094 1166.050781 1571.320312 C 1165.710938 1582.015625 1165.539062 1594.796875 1165.539062 1609.671875 "/>
<path style=" stroke:none;fill-rule:nonzero;fill:rgb(0%,0%,0%);fill-opacity:1;" d="M 1190.921875 1596.921875 L 1198.558594 1596.921875 L 1198.558594 1706.703125 C 1197.554688 1710.367188 1196.503906 1713.296875 1195.410156 1715.496094 C 1194.324219 1717.617188 1193.089844 1718.679688 1191.710938 1718.679688 C 1189.789062 1718.679688 1188.164062 1714.542969 1186.828125 1706.265625 C 1185.496094 1697.984375 1184.480469 1685.714844 1183.78125 1669.449219 C 1183.085938 1653.261719 1182.738281 1633.332031 1182.738281 1609.671875 C 1182.738281 1587.398438 1183.128906 1568.167969 1183.910156 1551.976562 C 1184.691406 1535.714844 1185.828125 1523.148438 1187.320312 1514.285156 C 1188.820312 1505.421875 1190.648438 1500.988281 1192.808594 1500.988281 C 1193.828125 1500.988281 1194.835938 1502.199219 1195.828125 1504.617188 C 1196.824219 1507.03125 1197.726562 1510.148438 1198.539062 1513.957031 L 1197.179688 1549.890625 C 1196.585938 1546.667969 1195.914062 1543.917969 1195.160156 1541.648438 C 1194.40625 1539.449219 1193.617188 1538.351562 1192.789062 1538.351562 C 1191.601562 1538.351562 1190.574219 1541.355469 1189.699219 1547.363281 C 1188.820312 1553.296875 1188.144531 1561.648438 1187.671875 1572.417969 C 1187.191406 1583.1875 1186.949219 1595.898438 1186.949219 1610.550781 C 1186.949219 1624.324219 1187.121094 1636.558594 1187.460938 1647.253906 C 1187.808594 1657.875 1188.347656 1666.226562 1189.078125 1672.308594 C 1189.820312 1678.316406 1190.785156 1681.320312 1191.96875 1681.320312 C 1192.550781 1681.320312 1193.039062 1681.027344 1193.441406 1680.441406 C 1193.839844 1679.78125 1194.214844 1679.121094 1194.570312 1678.460938 L 1194.570312 1634.285156 L 1190.921875 1634.285156 Z M 1190.921875 1596.921875 "/>
</g>
</svg>
